<?xml version="1.0" encoding="UTF-8" standalone="no"?>
<!DOCTYPE svg PUBLIC "-//W3C//DTD SVG 1.1//EN"
 "http://www.w3.org/Graphics/SVG/1.1/DTD/svg11.dtd">
<!-- Generated by graphviz version 2.38.0 (20140413.2041)
 -->
<!-- Title: %3 Pages: 1 -->
<svg
 viewBox="0.00 0.00 1000.00 1000.00" xmlns="http://www.w3.org/2000/svg" xmlns:xlink="http://www.w3.org/1999/xlink">
<g id="graph0" class="graph" transform="scale(4.16667 4.16667) rotate(0) translate(4 238)">
<title>%3</title>
<polygon fill="white" stroke="none" points="-4,4 -4,-238 233,-238 233,4 -4,4"/>
<!-- table0 -->
<g id="node1" class="node"><title>table0</title>
<polyline fill="none" stroke="black" points="8,-210 96,-210 "/>
<text text-anchor="start" x="45.7759" y="-215.8" font-family="Times,serif" font-size="14.00">s1</text>
<polygon fill="none" stroke="black" points="8,-190 8,-210 60,-210 60,-190 8,-190"/>
<text text-anchor="start" x="18.8413" y="-195.8" font-family="Times,serif" font-size="14.00">name</text>
<polygon fill="none" stroke="black" points="60,-190 60,-210 96,-210 96,-190 60,-190"/>
<text text-anchor="start" x="62.8413" y="-195.8" font-family="Times,serif" font-size="14.00">value</text>
<polygon fill="none" stroke="black" points="8,-170 8,-190 60,-190 60,-170 8,-170"/>
<text text-anchor="start" x="26.2241" y="-175.8" font-family="Times,serif" font-size="14.00">ptr</text>
<polygon fill="none" stroke="black" points="60,-170 60,-190 96,-190 96,-170 60,-170"/>
<polygon fill="none" stroke="black" points="8,-150 8,-170 60,-170 60,-150 8,-150"/>
<text text-anchor="start" x="25.4482" y="-155.8" font-family="Times,serif" font-size="14.00">len</text>
<polygon fill="none" stroke="black" points="60,-150 60,-170 96,-170 96,-150 60,-150"/>
<text text-anchor="start" x="74.5" y="-155.8" font-family="Times,serif" font-size="14.00">5</text>
<polygon fill="none" stroke="black" points="8,-130 8,-150 60,-150 60,-130 8,-130"/>
<text text-anchor="start" x="10.6826" y="-135.8" font-family="Times,serif" font-size="14.00">capacity</text>
<polygon fill="none" stroke="black" points="60,-130 60,-150 96,-150 96,-130 60,-130"/>
<text text-anchor="start" x="74.5" y="-135.8" font-family="Times,serif" font-size="14.00">5</text>
</g>
<!-- table1 -->
<g id="node3" class="node"><title>table1</title>
<polygon fill="none" stroke="black" points="148.5,-127 148.5,-147 185.5,-147 185.5,-127 148.5,-127"/>
<text text-anchor="start" x="151.448" y="-132.8" font-family="Times,serif" font-size="14.00">index</text>
<polygon fill="none" stroke="black" points="185.5,-127 185.5,-147 221.5,-147 221.5,-127 185.5,-127"/>
<text text-anchor="start" x="188.341" y="-132.8" font-family="Times,serif" font-size="14.00">value</text>
<polygon fill="none" stroke="black" points="148.5,-107 148.5,-127 185.5,-127 185.5,-107 148.5,-107"/>
<text text-anchor="start" x="163.5" y="-112.8" font-family="Times,serif" font-size="14.00">0</text>
<polygon fill="none" stroke="black" points="185.5,-107 185.5,-127 221.5,-127 221.5,-107 185.5,-107"/>
<text text-anchor="start" x="200" y="-112.8" font-family="Times,serif" font-size="14.00">h</text>
<polygon fill="none" stroke="black" points="148.5,-87 148.5,-107 185.5,-107 185.5,-87 148.5,-87"/>
<text text-anchor="start" x="163.5" y="-92.8" font-family="Times,serif" font-size="14.00">1</text>
<polygon fill="none" stroke="black" points="185.5,-87 185.5,-107 221.5,-107 221.5,-87 185.5,-87"/>
<text text-anchor="start" x="200.393" y="-92.8" font-family="Times,serif" font-size="14.00">e</text>
<polygon fill="none" stroke="black" points="148.5,-67 148.5,-87 185.5,-87 185.5,-67 148.5,-67"/>
<text text-anchor="start" x="163.5" y="-72.8" font-family="Times,serif" font-size="14.00">2</text>
<polygon fill="none" stroke="black" points="185.5,-67 185.5,-87 221.5,-87 221.5,-67 185.5,-67"/>
<text text-anchor="start" x="201.555" y="-72.8" font-family="Times,serif" font-size="14.00">l</text>
<polygon fill="none" stroke="black" points="148.5,-47 148.5,-67 185.5,-67 185.5,-47 148.5,-47"/>
<text text-anchor="start" x="163.5" y="-52.8" font-family="Times,serif" font-size="14.00">3</text>
<polygon fill="none" stroke="black" points="185.5,-47 185.5,-67 221.5,-67 221.5,-47 185.5,-47"/>
<text text-anchor="start" x="201.555" y="-52.8" font-family="Times,serif" font-size="14.00">l</text>
<polygon fill="none" stroke="black" points="148.5,-27 148.5,-47 185.5,-47 185.5,-27 148.5,-27"/>
<text text-anchor="start" x="163.5" y="-32.8" font-family="Times,serif" font-size="14.00">4</text>
<polygon fill="none" stroke="black" points="185.5,-27 185.5,-47 221.5,-47 221.5,-27 185.5,-27"/>
<text text-anchor="start" x="200" y="-32.8" font-family="Times,serif" font-size="14.00">o</text>
</g>
<!-- table0&#45;&gt;table1 -->
<g id="edge1" class="edge"><title>table0:pointer:c&#45;&gt;table1:pointee</title>
<path fill="none" stroke="black" d="M79,-180C79,-180 101.674,-127.363 137.16,-118.316"/>
<polygon fill="black" stroke="black" points="138.022,-121.734 147.5,-117 137.138,-114.79 138.022,-121.734"/>
</g>
<!-- table3 -->
<g id="node2" class="node"><title>table3</title>
<polyline fill="none" stroke="black" points="8,-84 96,-84 "/>
<text text-anchor="start" x="45.7759" y="-89.8" font-family="Times,serif" font-size="14.00">s2</text>
<polygon fill="none" stroke="black" points="8,-64 8,-84 60,-84 60,-64 8,-64"/>
<text text-anchor="start" x="18.8413" y="-69.8" font-family="Times,serif" font-size="14.00">name</text>
<polygon fill="none" stroke="black" points="60,-64 60,-84 96,-84 96,-64 60,-64"/>
<text text-anchor="start" x="62.8413" y="-69.8" font-family="Times,serif" font-size="14.00">value</text>
<polygon fill="none" stroke="black" points="8,-44 8,-64 60,-64 60,-44 8,-44"/>
<text text-anchor="start" x="26.2241" y="-49.8" font-family="Times,serif" font-size="14.00">ptr</text>
<polygon fill="none" stroke="black" points="60,-44 60,-64 96,-64 96,-44 60,-44"/>
<polygon fill="none" stroke="black" points="8,-24 8,-44 60,-44 60,-24 8,-24"/>
<text text-anchor="start" x="25.4482" y="-29.8" font-family="Times,serif" font-size="14.00">len</text>
<polygon fill="none" stroke="black" points="60,-24 60,-44 96,-44 96,-24 60,-24"/>
<text text-anchor="start" x="74.5" y="-29.8" font-family="Times,serif" font-size="14.00">5</text>
<polygon fill="none" stroke="black" points="8,-4 8,-24 60,-24 60,-4 8,-4"/>
<text text-anchor="start" x="10.6826" y="-9.8" font-family="Times,serif" font-size="14.00">capacity</text>
<polygon fill="none" stroke="black" points="60,-4 60,-24 96,-24 96,-4 60,-4"/>
<text text-anchor="start" x="74.5" y="-9.8" font-family="Times,serif" font-size="14.00">5</text>
</g>
<!-- table3&#45;&gt;table1 -->
<g id="edge2" class="edge"><title>table3:pointer:c&#45;&gt;table1:pointee</title>
<path fill="none" stroke="black" d="M79,-54C79,-54 101.674,-106.637 137.16,-115.684"/>
<polygon fill="black" stroke="black" points="137.138,-119.21 147.5,-117 138.022,-112.266 137.138,-119.21"/>
</g>
</g>
</svg>
