<?xml version="1.0" encoding="utf-8"?>
<!-- Generator: Adobe Illustrator 15.1.0, SVG Export Plug-In . SVG Version: 6.00 Build 0)  -->
<!DOCTYPE svg PUBLIC "-//W3C//DTD SVG 1.1//EN" "http://www.w3.org/Graphics/SVG/1.1/DTD/svg11.dtd">
<svg version="1.1" id="Layer_1" xmlns="http://www.w3.org/2000/svg" xmlns:xlink="http://www.w3.org/1999/xlink" x="0px" y="0px"
	 width="1240.298px" height="811.376px" viewBox="0 0 1240.298 811.376" enable-background="new 0 0 1240.298 811.376"
	 xml:space="preserve">
<!--<rect fill="#FFFFFF" width="1240.298" height="811.376"/>-->
<rect x="303.062" y="408.688" fill="#E33D27" width="440" height="322.312"/>
<polygon fill="#F37056" points="548.062,459 543.062,491 595.48,475 631.558,487 620.149,516.493 673.576,524.134 713.745,584
	700.062,644.844 753.914,671 780.201,542.318 678.062,433.837 "/>
<ellipse fill="#FFFFFF" cx="456.505" cy="603.308" rx="20.83" ry="41.536"/>
<ellipse fill="#FFFFFF" cx="613.519" cy="599.293" rx="18.039" ry="25.608"/>
<path d="M426.848,565.302c76.475-36.052,82.274,92.731,23.019,92.075C407.91,656.909,399.502,592.939,426.848,565.302z
	 M472.886,588.319c-3.647-13.308-14.517-15.274-25.896-8.632C411.107,600.633,485.029,632.633,472.886,588.319z"/>
<path d="M593.734,565.302c63.543-6.768,43.711,98.739,0,97.828C549.726,662.215,539.183,571.111,593.734,565.302z M616.753,614.216
	c8.869-6.019,6.418-24.879,0-31.65C586.653,575.41,587.316,620.858,616.753,614.216z"/>
<path fill="#E33D27" d="M1218.119,680.395c7.154,1.962-4.255,8.762-5.754,11.51c-40.783-1.407-71.586-8.146-97.83,5.754
	c-14.517-1.252-39.852-13.043-46.037,2.878c14.931,25.351,67.049,13.519,89.197,31.651c-12.87,18.54-39.345,5.012-57.547,5.754
	c-10.099,0.416-19.838,5.935-28.774,5.755c-49.039-0.988-101.843-22.372-152.498-23.019c42.625,23.559,115.104,17.253,155.376,43.16
	c-67.472,4.49-120.696-26.278-187.028-17.264c-6.34,0.861-6.592,6.33-11.509,5.754c-13.465-1.579-23.525-15.382-40.283-5.754
	c-6.26,5.23,6.261,17.787,0,23.018c-15.253-0.503-14.684-1.859-28.772,0c8.165-6.89,2.844-10.598,2.877-23.018
	c-13.752,2.551-9.706,22.902-25.896,23.018c-10.812-10.287-27.408-14.791-37.405-25.896c-12.972,3.333-5.671,26.937-17.265,31.65
	c-14.173-3.091-17.477-17.048-23.019-28.772c-3.136,10.441-20.8,16.528-28.773,5.754c-2.085,8.801,4.968,8.464,2.878,17.264
	c-18.137,3.755-22.952-5.821-37.406-5.754c0.949-12.456-3.963-19.055-11.51-23.019c4.176,9.359,9.97,28.835,2.877,40.283
	c58.823,6.435-102.298,3.786-184.15,5.755c-4.103-3.839-4.103-16.305,0-20.142c-3.242-3.983-16.786,6.063-25.896,5.754
	c-3.692-3.776-3.692-10.61,0-14.387c-22.912,6.714-41.991-16.95-51.792,2.878c-22.355-21.002-38.624,9.456-63.301,11.509
	c-0.208-9.795,8.463-10.717,14.387-14.387c-1.225-5.487-8.217-5.209-5.754-14.387c-21.833-0.735-30.381,11.819-48.916,14.387
	c-6.676-6.637,5.328-9.278,2.878-20.142c-14.78-4.791-23.536,24.911-43.161,14.387c2.484-8.068,14.983-6.119,20.142-11.509
	c-4.107-7.834-13.948-3.709-28.773-5.756c5.839-11.424,18.647-15.887,28.773-23.018c-16.19-14.891-50.252,8.151-86.32,0
	c-5.632-5.376-0.888-10.538,0-17.264c-26.711,2.744-56.57-2.806-92.075,0c2.416-3.342,3.799-7.716,2.877-14.388
	c21.001-2.978,57.323,9.365,57.547-14.387c13.15,2.023,39.985,15.118,48.916,2.878c-41.733-18.691-93.205-27.639-132.358-48.915
	c46.858-1.271,84.578,2.139,123.726-2.877c-14.836-7.225-29.161-14.957-51.792-14.387c-1.995-9.515-8.025-14.992-14.387-20.142
	c14.393,0.544,26.632,3.115,37.406-11.511c-28.684-5.917-66.629-11.896-103.584-17.264c-0.489-8.162,9.733-5.614,5.754-17.264
	c44.335,1.66,97.286,27.155,149.623,20.142c-19.613-10.115-54.625-4.845-74.811-14.387c8.817-3.917,31.875,2.574,48.915,0
	c-28.055-9.265-51.18-14.974-74.811-23.02c-1.147-10.739,2.299-16.882,11.509-17.264c-27.891-14.312-72.805-11.593-92.075-34.528
	c67.275,12.083,131.448,13.792,198.537,25.897c-37.895-23.488-109.193-13.576-135.235-48.916
	c17.298,3.808,38.108,4.095,51.792,11.509c5.26-4.333,6.772-12.414,11.51-17.263c-8.29-12.375-29.769-25.14-28.774-37.406
	c-10.126,8.26-21.226,0.57-11.509-8.633c-6.558-0.802-10.812,0.695-11.509,5.755c-11.38-14.192-41.548-24.578-69.057-37.406
	c13.712-22.602,48.516,23.597,60.424-8.632c37.523,18.628,73.715,39.315,117.971,57.547c7.57,0.851,2.265-11.164,11.509-8.631
	c-30.864-42.024-97.425-48.358-123.726-94.953c55.422,11.463,96.745,35.034,138.113,48.915
	c-18.522-26.558-67.382-47.704-100.707-69.056c16.719-7.501,46.628,10.534,66.179,25.896c17.062,0.757,22.496-4.753,28.773,5.755
	c3.467-3.249,5.215-8.211,14.387-5.755c-2.417-17.223-41.047-27.381-34.528-34.528c-2.821-5.753-23.592,3.166-17.264-5.753
	c17.021-8.622,52.713,19.045,71.934,34.528c8.856,2.143,5.53-7.898,14.386-5.755c-17.477-41.028-62.902-54.108-94.952-80.565
	c16.101-2.625,34.859,16.896,48.915,25.896c-13.454-30.673-60.846-52.319-83.443-83.443c14.331-9.428,31.427,3.026,34.529,14.387
	c41.625-17.209,41.851,53.044,83.443,54.67c0.135-9.789-20.698-23.374-23.019-40.283c55.417,21.313,74.771,78.69,120.848,109.339
	c-9.694-14.366-16-28.587-25.896-40.283c-2.906-3.435-12.078-6.455-14.387-11.509c-5.181-11.351,2.501-24.23,0-37.405
	c-8.834-46.596-59.648-77.024-71.934-126.604c60.424,23.635,64.139,87.271,120.849,112.217c3.502,9.927,9.508,17.348,17.264,23.019
	c-6.501-27.068-24.469-42.668-31.65-69.057c13.105,16.627,22.53,36.939,34.528,54.669c7.923-3.45,12.021-6.249,20.142-2.877
	c14.933,25.514,12.746,62.473,31.65,77.688c1.545-27.312-19.079-81.817-48.914-103.585c4.917-13.311,16.061,0.944,23.018,2.877
	c-2.382-36.073-48.858-95.548-25.896-138.113c33.685,45.919,52.119,107.102,80.565,158.254c18.647-22.846-6.754-63.077-5.753-77.689
	c24.345-6.629,23.125,36.008,34.528,51.793c-11.323,15.779-18.107,69.924,0,80.566c6.732-22.835,27.025-70.625,2.877-89.198
	c11.532-27.307-11.375-85.412,5.754-115.095c2.333,0.547,2.873,2.886,5.755,2.878c11.375,8.951,6.991,52.885,14.387,74.811
	c15.883-26.322,11.335-73.067,43.161-83.443c40.395,56.191,5.844,157.535,17.264,230.188c16.882-26.091,6.238-92.451,8.633-123.726
	c12.835,6.351,2.354,36.013,5.753,51.792c9.999-29.156,17.749-76.621,8.633-100.707c31.206-12.896,6.732-68.573,40.283-74.811
	c20.208,50.773-20.771,115.566,0,158.254c28.183-15.123,24.883-76.587,63.301-71.935c17.348-27.735,18.337-71.821,40.283-94.952
	c11.599,6.23,6.939,20.636,5.755,28.774c-5.469,37.506-37.496,79.328-28.774,129.48c16.079,3.051,12.233-12.965,17.264-20.141
	c22.969-32.747,53.524-54.615,63.303-97.83c9.093-4.339,13.37-13.492,23.02-17.264c2.972,30.808-14.271,66.28-31.652,86.321
	c20.782,9.806,6.621,42.072,8.633,66.179c27.801-28.788,45.97-67.206,69.056-100.707c0.631-10.526,3.957-11.038,0-20.142
	c9.694-4.023,12.285-19.592,25.896-11.51c-3.187,35.176-19.389,57.343-31.651,83.443c19.602,34.369-25.643,69.83-37.405,100.707
	c36.49-22.017,56.587-60.427,83.443-92.075c15.522-3.715,22.333-31.311,37.406-25.896c10.121,10.746-15.416,33.993-28.774,40.283
	c-15.814,24.466-37.271,43.289-54.67,66.18c20.4,0.253,19.901-20.384,34.528-25.897c-12.431,22.11-46.615,47.365-60.424,77.689
	c19.49-10.264,44.7-39.687,60.424-63.302c5.48-5.392,7.232-0.313,14.388,0c31.863-23.788,69.443-45.422,60.423-94.952
	c14.787-1.359,17.266,9.59,17.266,23.019c15.977-2.248,21.776-14.675,34.528-20.142c3.883,23.099-35.67,27.604-40.283,51.792
	c7.024,7.731,17.86-5.038,23.019,5.755c-7.003,16.976-35.265,12.69-37.405,34.528c24.951,8.02,57.99-55.858,74.812-20.141
	c-44.948,23.148-94.257,41.938-112.217,92.075c20.916,4.567,33.337-24.18,57.547-25.896c-15.781,11.964-9.128,30.528-25.896,43.16
	c26.053-8.69,38.445-45.669,66.179-43.16c-21.068,16.015-36.569,16.525-51.792,48.915c22.496-2.73,53.81-20.786,80.566-28.773
	c8.664,33.895-29.656,44.938-48.916,60.423c15.141,15.86,42.425,2.503,48.916-14.386c30.661,0.964,54.5-11.661,83.442-20.142
	c-10.476,28.857-79.555,24.02-86.32,66.18c-17.449,3.649-25.379,16.821-43.161,20.142c22.188,0.098,49.978-19.061,77.689-23.019
	c-21.384,16.979-53.405,23.318-74.812,40.283c4.153,13.752,14.089,3.931,23.02,0c18.343,0.12,34.905-1.545,43.159-11.51
	c16.557,5.654,32.235-1.677,43.16-5.754c20.85,6.545,35.652,3.21,60.425,2.876c-9.054,14.494-47.628,12.643-51.792,40.283
	c-15.404-1.017-20.782,7.991-31.651,11.509c-11.448-10.902-70.523-0.736-77.688,11.51c20.973,8.533,70.854-24.019,83.442,2.878
	c-2.158,15.103-23.418,11.11-34.528,17.264c-0.917,7.632,16.124-2.691,11.509,8.632c-37.73-11.667-80.526,5.513-117.971,11.51
	c54.85,5.668,118.797-17.455,166.887-11.51c-0.691,5.061-4.951,6.559-11.51,5.755c-1.102,9.736,12.739,4.527,8.633,17.264
	c21.59,0.281,47.278-13.782,60.423,2.878c0.013,17.277-34.746-0.219-28.772,23.02c-36.653,4.706-80.122-7.428-103.584,14.386
	c23.209,21.063,84.387-7.378,112.217,8.633c-10.348,14.589-38.198,11.672-60.425,14.387c-12.038,20.624-38.479,13.604-63.303,17.264
	c16.473,25.356,71.062,17.585,94.953,20.142c3.191,5.446,3.67,13.594,5.755,20.141c-27.801,2.769-47.735,0.492-69.057,5.755
	c37.866,18.388,83.977,14.851,135.235,28.774C1214.787,675.751,1214.787,688.616,1218.119,680.395z M550.575,202.755
	c-2.799-24.018,5.136-64.358-2.877-74.811C546.247,154.524,529.809,185.218,550.575,202.755z M320.386,191.246
	c-1,14.109,7.149,22.259,17.264,17.264C336.083,198.98,328.187,185.549,320.386,191.246z M662.79,266.057
	c12.775-7.608,29.892-34.197,17.266-48.915C675.722,234.869,668.423,249.626,662.79,266.057z M349.16,243.038
	c-8.98-2.527,0.106-23.126-11.51-23.019C336.487,230.921,344.479,247.532,349.16,243.038z M795.148,251.67
	c3.984-9.588,28.605-22.207,14.388-31.651C805.719,229.717,784.224,236.792,795.148,251.67z M947.648,225.773
	c-30.661,17.531-60.307,50.434-83.442,74.811c-7.183,7.567-21.355,17.894-17.266,25.897c33.73-34.37,81.348-54.849,106.463-97.831
	C952.769,226.41,950.992,225.304,947.648,225.773z M524.678,300.584c-0.634-10.877,2.928-25.946-8.631-25.896
	C510.319,282.514,512.819,301.348,524.678,300.584z M380.811,306.34c-8.363-6.98-10.779-19.912-20.142-25.896
	C363.551,291.078,372.235,310.964,380.811,306.34z M766.376,355.254c11.79-17.008,36.512-36.346,37.405-54.67
	C788.394,313.993,771.743,341.409,766.376,355.254z M228.311,335.113c-0.893-9.655-9.621-11.475-17.264-14.387
	C208.473,333.853,220.511,332.365,228.311,335.113z M881.47,375.396c27.255-1.815,43.564-28.929,63.301-28.773
	c-5.726-10.979,16.68-14.906,8.633-25.897C933.627,343.149,899.886,351.612,881.47,375.396z M950.526,340.868
	c10.267-2.201,17.517-7.421,23.019-14.386C963.276,328.683,956.028,333.901,950.526,340.868z M832.554,366.763
	c7.29-8.131,29.083-16.858,23.02-28.773C848.684,346.513,827.743,356.104,832.554,366.763z M513.169,378.273
	c6.395-9.208,0.152-25.671-8.633-28.774C495.556,361.294,510.111,369.446,513.169,378.273z M259.962,407.046
	c-0.961-12.467-15.933-10.918-23.019-17.264C239.416,400.739,247.216,406.369,259.962,407.046z M406.706,407.046
	c-4.265-2.445-6.186-7.242-5.754-14.387C380.946,392.85,404.992,412.555,406.706,407.046z M1091.516,427.188
	c18.889,1.254,40.199,5.823,51.792-5.755C1125.139,417.853,1105.779,418.069,1091.516,427.188z M861.328,467.471
	c-4.401,8.843,18.793,8.843,14.387,0C874.979,460.736,863.076,465.812,861.328,467.471z M553.451,484.735
	c9.801,0.208,10.718-8.465,14.388-14.387c-3.676-0.158-3.984-3.69-8.633-2.878C560.589,476.523,555.109,478.72,553.451,484.735z
	 M510.292,484.735c-7.593,9.672-6.013,28.515-25.897,25.896c-3.776-8.931,0.782-8.211,0-20.142
	c-7.199,0.358-9.008,5.49-11.509-2.878c8.092-0.539,12.262-5.004,11.509-14.386c-10.543-0.954-15.988,3.191-23.019,5.753
	c0.934,17.233,0.995,33.607-17.264,31.652c-5.686-6.537,3.063-16.076,0-28.774c-15.24-4.692-12.396,8.7-17.264,14.387
	c-3.395-4.271-2.49-12.855-11.509-11.509c0,7.673,0,15.345,0,23.019c8.081,3.429,18.343,4.676,17.264,17.265
	c-9.845-5.036-17.826,1.259-28.772,2.877c-0.647,5.439,3.242,6.348,2.876,11.509c-20.781,5.638-38.186-2.139-57.546-5.755
	c8.283,14.739,31.661,14.379,37.406,31.652c-13.758,2.137-24.104-14.115-31.652-8.633c6.193,2.438,10.178,7.086,8.633,17.264
	c-3.839,4.105-16.303,4.105-20.142,0c0.674,11.893,17.865,8.978,8.631,23.02c4.182,1.572,14.877-3.364,14.388,2.877
	c-2.182,13.162-31.05-0.356-37.406,8.632c6.896,11.329,28.565,7.881,37.406,17.264c-1.878,14.427-12.533,20.074-25.897,23.02
	c1.326,9.228,13.067,8.036,14.387,17.264c14.871,0.481,13.296-15.479,28.774-14.387c0.54,14.764-11.595,19.113,2.877,25.897
	c-10.492,13.175-11.23,19.033-23.019,28.772c22.805,2.664,28.874-11.409,40.283-20.142c-2.058,7.814,13.571-2.061,11.509,5.755
	c-4.952,7.767,3.175,22.35,5.755,31.65c7.086-14.639,24.575-52.949,43.159-28.772c2.435,10.239-8.327,17.241,2.878,20.14
	c2.192-22.945,23.323-8.991,34.528-2.876c4.166-5.435,6.43-12.758,17.264-11.51c5.384,4.21,3.394,15.786,14.388,14.386
	c3.618-14.832,3.551-27.433,14.387-28.772c4.794,3.839,0.961,16.303,5.753,20.142c16.855-0.546,24.453,8.159,31.652,17.264
	c2.821-3.894,9.7-3.729,11.509-8.633c2.332-13.834-12.622-10.39-8.631-25.895c9.053-1.377,11.25,4.096,17.264,5.755
	c4.94-10.819,8.486-8.065,14.387-14.388c23.979,18.039,41.816,11.808,71.934,17.264c-1.113-10.39-15.786-7.231-11.509-23.018
	c-8.464-3.046-19.064-3.957-25.897-8.633c1.4-3.4,3.068-6.524,5.755-8.631c13.47,3.31,44.986,19.467,46.037-5.756
	c-11.807,0.298-23.492,0.473-28.773-5.755c2.439-10.267,7.086-0.345,17.265-2.878c-9.649-13.283,1.758-10.46,2.877-25.895
	c-6.166-9.521-26.475-2.203-31.652-5.756c9.24-13.779,34.226-11.812,43.161-25.896c-16.157-11.033-31.026-7.625-40.283,5.755
	c-19.838-8.728,13.825-22.618,8.633-34.527c-14.173,4.068-22.277-8.931-40.283,0c-1.231-5.479-6.198-7.233-5.755-14.387
	c1.288-8.303,12.381-6.804,14.386-14.387c-16.583-9.897-36.613,11.937-63.301,2.876c8.783-16.153,25.53-24.347,34.528-40.281
	c-15.843,5.749-25.424,31.454-43.161,25.896c10.914-8.452,5.266-19.028,14.388-31.65c-17.888,18.046-29.702,12.679-51.794,17.264
	c0.013-2.885-2.332-3.422-2.876-5.755c-1.933-10.729,11.671-20.717,5.754-25.896C532.046,477.715,525.325,485.381,510.292,484.735z
	 M631.14,510.632c14.477,0.96,28.762-13.325,23.019-23.02C649.742,498.537,634.281,498.427,631.14,510.632z M1028.215,527.896
	c25.193,7.943,70.354,6.553,80.564-17.264C1089.977,513.287,1039.848,508.571,1028.215,527.896z M717.46,576.811
	c9.773-4.619,26.661-2.113,31.651-11.509C737.562,568.133,719.702,564.66,717.46,576.811z M705.951,640.111
	C728.937,657.017,720.579,623.069,705.951,640.111L705.951,640.111z M1056.987,651.621c1.242-6.434,14.185-1.166,20.142-2.877
	C1071.016,638.734,1006.465,648.215,1056.987,651.621z M1005.195,697.658c3.08,7.52,25.159,3.198,37.406,0
	C1032.368,694.931,1003.976,694.675,1005.195,697.658z M544.819,769.592c-5.058-0.693-6.558-4.95-5.755-11.509
	c-19.191,0.495-6.963,14.534-20.142,20.142c15.348,0,30.695,0,46.038,0c0.989-12.499-2.175-20.844-11.51-23.02
	C554.02,763.444,553.811,770.91,544.819,769.592z M593.734,781.103c10.633-1.839,28.667,3.726,34.528-2.878
	c-10.676-3.709-10.682-18.09-25.895-17.264C605.396,773.579,592.638,770.41,593.734,781.103z M484.395,781.103
	c9.594,0,19.187,0,28.774,0C511.691,769.374,485.497,769.412,484.395,781.103z"/>
<rect x="477.335" y="335.988" fill="#E33D27" width="60.604" height="58.978"/>
<rect x="346.712" y="365.477" fill="#E33D27" width="64.323" height="59.871"/>
<rect x="841.76" y="436.07" fill="#E33D27" width="55.402" height="80.423"/>
<rect x="490.15" y="254.548" fill="#E33D27" width="47.789" height="54.634"/>
<rect x="221.61" y="365.477" fill="#E33D27" width="37.53" height="50.935"/>
<g>
	<path fill="#F37056" d="M960.874,342.508c-7.183,7.57-21.354,17.894-17.264,25.897c23.211-23.649,52.995-40.722,77.5-63.077
		c-13.034,5.459-25.59,10.327-36.366,12.113C976.251,326.146,968.231,334.759,960.874,342.508z"/>
	<path fill="#F37056" d="M982.291,286.56c2.111-6.42,4.772-12.605,11.396-17.626c-4.429,0.314-8.461,1.536-12.223,3.29
		c-15.054,16.66-34.13,35.084-43.608,55.898C951.605,320.884,968.188,304.103,982.291,286.56z"/>
	<path fill="#F37056" d="M1032.808,336.755c0.142,0.03,0.276,0.044,0.414,0.069c16.913-10.348,33.999-22.228,30.24-44.329
		C1050.207,304.209,1039.396,318.372,1032.808,336.755z"/>
	<path fill="#F37056" d="M1189.346,404.169c-9.241,0.124-17.092,0.667-24.393,0.958c-3.92,4.524-6.771,9.897-8.097,16.427
		C1169.379,415.4,1184.175,412.447,1189.346,404.169z"/>
	<path fill="#F37056" d="M1093.542,331.732c-5.376,1.275-10.857,2.256-16.521,2.836c-2.233,6.923-5.04,13.786-12.562,19.45
		C1075.991,350.17,1084.845,340.787,1093.542,331.732z"/>
	<path fill="#F37056" d="M929.224,408.688c7.288-8.133,29.083-16.855,23.02-28.774C945.354,388.439,924.413,398.027,929.224,408.688
		z"/>
	<path fill="#F37056" d="M503.376,448.97c-4.265-2.443-6.188-7.237-5.755-14.386C477.616,434.775,501.662,454.479,503.376,448.97z"
		/>
	<path fill="#F37056" d="M759.46,307.98c12.773-7.604,29.892-34.197,17.264-48.915C772.392,276.796,765.091,291.553,759.46,307.98z"
		/>
	<path fill="#F37056" d="M890.099,290.81c0.45,0.896,1.015,1.823,1.72,2.784c1.44-3.468,5.58-7.331,9.607-11.299
		C897.672,285.156,893.89,287.984,890.099,290.81z"/>
	<path fill="#F37056" d="M863.046,397.178c4.893-7.058,12.008-14.521,18.729-22.142c1.233-1.57,2.54-3.068,3.899-4.512
		c7.834-9.309,14.325-18.791,14.776-28.016C885.063,355.918,868.411,383.337,863.046,397.178z"/>
	<path fill="#F37056" d="M1048.356,202.755c-2.375-5.043-5.084-8.048-8.039-9.602c-6.688,7.37-15.63,14.047-21.896,16.997
		c-2.716,4.204-5.642,8.197-8.64,12.116C1022.446,215.568,1035.576,209.336,1048.356,202.755z"/>
	<path fill="#F37056" d="M900.451,236.047c4.218-4.366,8.189-8.975,12.015-13.735c-4.415-1.273-6.41-3.791-10.855,0.584
		c-0.362,0.545-0.758,1.11-1.132,1.661C900.215,228.505,900.145,232.372,900.451,236.047z"/>
	<path fill="#F37056" d="M609.837,420.197c6.396-9.205,0.152-25.672-8.631-28.773C592.226,403.22,606.78,411.374,609.837,420.197z"
		/>
	<path fill="#F37056" d="M1194.9,524.134c-7.083,1.752-15.417,2.252-21.102,5.402c-0.141,1.167,0.173,1.88,0.733,2.349
		C1182.579,530.562,1193.381,531.989,1194.9,524.134z"/>
	<path fill="#F37056" d="M1139.644,437.292c2.543-5.611,6.859-9.652,11.949-12.835c-14.169,4.826-22.213,15.774-38.219,18.758
		C1121.475,443.252,1130.327,440.713,1139.644,437.292z"/>
	<path fill="#F37056" d="M1127.288,506.742c-1.045,0.868-1.879,1.754-2.405,2.652c2.51,1.021,5.441,1.441,8.66,1.458
		C1131.681,509.263,1128.91,508.577,1127.288,506.742z"/>
	<path fill="#F37056" d="M1047.196,382.792c5.236-1.121,9.68-3.037,13.516-5.561c0.651-2.398,1.516-4.628,2.575-6.71
		C1056.552,373.24,1051.367,377.512,1047.196,382.792z"/>
	<path fill="#F37056" d="M978.138,417.319c27.257-1.815,43.566-28.924,63.303-28.772c-5.726-10.976,16.68-14.905,8.631-25.897
		C1030.297,385.073,996.555,393.537,978.138,417.319z"/>
	<path fill="#F37056" d="M957.997,509.395c-4.4,8.846,18.792,8.846,14.388,0c-0.067-0.618-0.256-1.104-0.495-1.534
		c-0.405-0.039-0.817-0.064-1.223-0.106c0.352-0.057,0.709-0.121,1.062-0.181C969.09,503.774,959.548,507.923,957.997,509.395z"/>
	<path fill="#F37056" d="M1174.96,568.179c-11.15-6.416-27.655-5.69-44.926-3.878c-2.112,1.585-3.874,3.4-5.151,5.519
		c12.32,3.887,29.403,5.526,44.851,3.417C1171.755,571.834,1173.537,570.185,1174.96,568.179z"/>
	<path fill="#F37056" d="M1078.151,550.431c16.431-5.851,37.288-4.484,58.229-4.133c9.858-1.38,19.687-2.915,29.369-4.328
		c-0.368-3.449,0.435-5.734,1.99-7.261c-33.084-3.223-68.665,9.885-100.404,14.969
		C1070.905,550.046,1074.514,550.288,1078.151,550.431z"/>
	<path fill="#F37056" d="M519.384,275.245c-5.662-14.417-13.493-28.914-22.875-40.615c-0.964,3.086-1.932,6.056-2.847,8.863
		c1.231,0.242,2.518,0.587,3.958,1.187c14.932,25.513,12.746,62.474,31.652,77.687c0.477-8.462-1.174-19.539-4.568-31.442
		c-0.057,3.267-0.203,6.626-0.026,9.66c-11.858,0.762-14.358-18.07-8.631-25.896C517.35,274.683,518.437,274.894,519.384,275.245z"
		/>
	<path fill="#F37056" d="M267.434,218.783c1.495-0.619,2.919-1.093,4.31-1.493c-11.518-10.683-24.522-19.877-40.555-26.044
		c0.562,4.085,2.214,7.972,4.381,11.664C249.279,196.5,264.522,208.122,267.434,218.783z"/>
	<path fill="#F37056" d="M208.169,401.292c-6.071-1.665-5.877,2.939-7.165,6.057c28.852,14.916,58.187,30.438,92.325,44.498
		c7.57,0.854,2.265-11.161,11.509-8.632c-11.596-15.786-28.231-26.537-45.874-36.275c-9.229-0.704-15.755-4.112-19.403-10.394
		c-23.185-12.392-45.614-25.54-58.449-48.283c55.423,11.464,96.746,35.034,138.113,48.914
		c-16.806-24.092-58.581-43.732-91.072-63.115c0.056,0.345,0.123,0.682,0.157,1.05c-7.8-2.748-19.838-1.262-17.264-14.387
		c4.555,1.734,9.483,3.094,12.92,5.942c17.211-2.379,43.146,13.536,60.73,27.35c17.062,0.757,22.497-4.75,28.774,5.754
		c3.467-3.249,5.214-8.21,14.386-5.754c-2.416-17.22-41.047-27.381-34.528-34.529c-2.821-5.754-23.592,3.17-17.264-5.754
		c17.022-8.621,52.714,19.045,71.935,34.528c8.856,2.146,5.53-7.896,14.386-5.755c-17.479-41.024-62.903-54.107-94.953-80.565
		c16.1-2.625,34.86,16.897,48.915,25.896c-10.372-23.648-40.91-41.933-64.713-63.33c1.58,2.518,2.603,4.867,2.571,7.02
		c-41.592-1.626-41.817-71.881-83.443-54.67c-3.102-11.36-20.198-23.813-34.529-14.387c22.598,31.125,69.99,52.771,83.443,83.443
		c-14.055-9-32.814-28.521-48.915-25.896c32.05,26.456,77.475,39.538,94.952,80.565c-8.856-2.143-5.53,7.898-14.386,5.755
		c-19.22-15.482-54.912-43.15-71.934-34.528c-6.329,8.921,14.442,0,17.264,5.753c-6.519,7.146,32.111,17.307,34.528,34.528
		c-9.172-2.458-10.919,2.506-14.387,5.755c-6.278-10.506-11.712-5-28.773-5.755c-19.551-15.362-49.46-33.396-66.179-25.896
		c33.325,21.353,82.185,42.5,100.707,69.056c-41.368-13.88-82.69-37.453-138.113-48.915
		C110.744,352.937,177.305,359.27,208.169,401.292z"/>
	<path fill="#F37056" d="M309.93,240.203c3.794,5.699,7.626,11.627,11.979,16.89c1.75,1.079,3.316,2.125,4.232,3.209
		c1.371,1.622,2.664,3.302,3.917,5.013c5.709,4.648,12.412,7.81,20.818,8.138c0.135-9.784-20.697-23.373-23.019-40.283
		c5.356,2.061,10.369,4.466,15.109,7.143c-3.299-4.795-6.03-13.607-5.317-20.292c11.616-0.107,2.53,20.492,11.51,23.019
		c-0.256,0.247-0.529,0.405-0.802,0.529c40.576,25.857,60.456,72.41,100.348,98.942c-9.693-14.363-15.999-28.583-25.895-40.283
		c-2.907-3.433-12.078-6.451-14.388-11.509c-5.18-11.346,2.502-24.227,0-37.406c-3.431-18.093-13.198-33.747-24.575-49.033
		c-0.958,0.433-1.958,0.885-3.037,1.354c-5.465-8.079-10.4-16.69-15.39-25.247c-6.822-8.953-13.355-18.146-18.698-27.976
		c7.436,25.506,24.83,41.049,31.21,67.609c-7.756-5.673-13.762-13.092-17.264-23.019c-56.71-24.946-60.425-88.582-120.849-112.217
		c12.285,49.581,63.099,80.007,71.934,126.604C313.643,221.337,309.731,231.121,309.93,240.203z M320.386,191.246
		c7.801-5.695,15.697,7.736,17.264,17.264C327.535,213.503,319.386,205.354,320.386,191.246z"/>
	<path fill="#F37056" d="M390.342,171.301c18.823,25.289,33.874,53.051,66.997,67.624c3.5,9.93,9.508,17.348,17.264,23.019
		c-6.502-27.065-24.469-42.667-31.652-69.057c13.106,16.628,22.53,36.938,34.529,54.669c1.955-0.851,3.672-1.661,5.28-2.349
		c-7.824-18.554-2.404-55.13,6.276-69.523c-5.993-14.727-12.288-30.299-15.581-45.543c-3.897-6.521-9.289-10.278-17.834-7.952
		c-1.001,14.612,24.4,54.842,5.753,77.689c-28.446-51.154-46.88-112.335-80.565-158.254
		c-22.962,42.564,23.513,102.04,25.896,138.113C402.079,178.449,395.608,171.753,390.342,171.301z"/>
	<path fill="#F37056" d="M307.717,362.65c-2.574,13.127,9.463,11.639,17.264,14.386C324.087,367.382,315.359,365.561,307.717,362.65
		z"/>
	<path fill="#F37056" d="M422.181,231.992c2.706,6.736,4.949,13.468,6.649,19.912c1.728-0.054,3.573-0.523,5.49-1.47
		C433.1,243.018,428.039,233.279,422.181,231.992z"/>
	<path fill="#F37056" d="M445.829,284.961c-8.981-2.523,0.107-23.125-11.509-23.018
		C433.156,272.845,441.148,289.458,445.829,284.961z"/>
	<path fill="#F37056" d="M258.801,736.706c-4.395,0.452-8.885,0.662-13.462,0.742c1.256,0.752,2.302,1.819,3.113,3.371
		c-5.159,5.39-17.657,3.44-20.142,11.509c12.687,6.804,20.833-3.199,28.999-9.835C257.897,740.678,258.528,738.765,258.801,736.706z
		"/>
	<path fill="#F37056" d="M266.762,755.276c0.264,0.874,0.81,1.79,1.832,2.807c3.484-0.483,6.612-1.317,9.545-2.352
		C274.396,755.826,270.598,755.697,266.762,755.276z"/>
	<path fill="#F37056" d="M87.321,398.415c0.697-5.061,4.951-6.556,11.509-5.755c-9.717,9.203,1.383,16.893,11.509,8.633
		c-0.995,12.268,20.484,25.031,28.774,37.406c-4.737,4.849-6.25,12.93-11.51,17.263c-13.684-7.414-34.494-7.701-51.792-11.509
		c25.82,35.04,96.11,25.613,134.24,48.339c5.202,1.239,10.045,2.832,14.222,5.095c5.26-4.334,6.771-12.415,11.509-17.264
		c-8.289-12.375-29.768-25.138-28.773-37.406c-10.127,8.261-21.226,0.574-11.509-8.632c-6.559-0.797-10.813,0.698-11.51,5.755
		c-11.38-14.19-41.547-24.576-69.056-37.406c12.836-21.153,44.149,17.963,57.867-3.383c-33.871-15.463-63.552-32.002-94.112-47.173
		c-11.909,32.229-46.712-13.968-60.424,8.632C45.773,373.837,75.941,384.222,87.321,398.415z"/>
	<path fill="#F37056" d="M558.045,241.802c18.647-22.845-6.755-63.077-5.755-77.688c16.821-4.578,21.438,14.355,26.444,31.704
		c3.859-55.909,10.377-113.72-16.651-151.317c-31.825,10.377-27.278,57.123-43.161,83.443c-7.396-21.926-3.011-65.862-14.387-74.811
		c-2.882,0.008-3.421-2.33-5.755-2.878c-8.584,14.876-7.112,36.892-4.959,58.59C517.875,150.519,534.557,199.568,558.045,241.802z
		 M547.697,127.944c8.013,10.453,0.078,50.795,2.877,74.811C529.809,185.218,546.247,154.523,547.697,127.944z"/>
	<path fill="#F37056" d="M345.122,753.97c-6.598-6.066-16.163-5.833-27.619-3.981c1.346,3.273,4.917,4.318,5.761,8.095
		c-5.923,3.67-14.595,4.592-14.387,14.387c5.249-0.438,10.112-2.163,14.741-4.403C329.979,762.56,338.159,758.873,345.122,753.97z"
		/>
	<path fill="#F37056" d="M248.452,712.046c-0.542,0.382-1.118,0.733-1.677,1.101c11.644,3.148,23.822,5.156,29.29-2.338
		c-32.949-14.757-71.948-23.459-106.184-36.933c-11.934,1.41-29.524-6.348-39.401-7.868c-0.224,23.752-36.545,11.409-57.547,14.387
		c0.922,6.672-0.461,11.046-2.877,14.388c35.505-2.806,65.364,2.744,92.075,0c-0.888,6.726-5.632,11.888,0,17.264
		C198.2,720.197,232.262,697.155,248.452,712.046z"/>
	<path fill="#F37056" d="M93.076,519.263c23.631,8.046,46.756,13.755,74.811,23.02c-17.04,2.574-40.098-3.917-48.915,0
		c18.857,8.913,50.641,4.909,70.734,12.585c0.714-6.782,4.347-10.647,11.549-10.944c-27.892-14.313-72.805-11.594-92.075-34.528
		c67.275,12.082,131.448,13.792,198.538,25.896c-37.479-23.228-107.606-13.814-134.334-47.8
		c-53.725-7.24-106.279-10.213-160.873-20.021c19.271,22.936,64.184,20.216,92.075,34.528
		C95.375,502.381,91.929,508.523,93.076,519.263z"/>
	<path fill="#F37056" d="M47.038,619.971c33.711,18.32,76.542,27.512,114.439,41.641c38.881-0.242,71.881,1.775,105.957-2.594
		c-14.836-7.222-29.162-14.954-51.792-14.387c-1.996-9.515-8.026-14.989-14.387-20.142c14.393,0.546,26.632,3.118,37.405-11.511
		c-28.683-5.918-66.628-11.896-103.584-17.264c-0.488-8.159,9.733-5.614,5.755-17.264c44.334,1.663,97.285,27.155,149.622,20.141
		c-19.612-10.115-54.624-4.844-74.81-14.386c8.817-3.917,31.875,2.574,48.914,0c-28.054-9.262-51.179-14.971-74.811-23.02
		c-0.152-1.431-0.21-2.767-0.196-4.032c-50.952,5.159-102.247-19.012-145.388-20.627c3.979,11.649-6.243,9.102-5.754,17.264
		c36.956,5.367,74.9,11.347,103.584,17.264c-10.773,14.626-23.013,12.055-37.406,11.511c6.362,5.149,12.392,10.627,14.387,20.142
		c22.631-0.57,36.957,7.162,51.792,14.387C131.616,622.109,93.896,618.7,47.038,619.971z"/>
	<path fill="#F37056" d="M1083.058,351.613c23.241-13.143,56.156-17.439,63.128-36.642c-15.511,4.544-29.56,10.265-43.976,14.46
		C1095.478,334.435,1089.207,340.808,1083.058,351.613z"/>
	<path fill="#F37056" d="M503.376,221.66c-0.172-2.607-0.598-5.354-1.188-8.191c-0.486,2.327-1.028,4.651-1.613,6.958
		C501.561,220.979,502.502,221.418,503.376,221.66z"/>
	<path fill="#F37056" d="M333.613,431.706c2.473,10.96,10.272,16.589,23.018,17.264C355.67,436.506,340.699,438.051,333.613,431.706
		z"/>
	<path fill="#F37056" d="M457.339,322.367c2.882,10.638,11.565,30.522,20.142,25.897
		C469.118,341.283,466.702,328.352,457.339,322.367z"/>
	<path fill="#F37056" d="M612.715,316.613c-5.726,7.828-3.226,26.66,8.633,25.895C620.713,331.634,624.276,316.567,612.715,316.613z
		"/>
	<path fill="#F37056" d="M675.856,231.276c1.558-4.553,2.999-9.222,4.199-14.134c8.91,10.386,3.006,26.675-5.728,38.041
		c-1.132,21.552-1.289,42.471,1.689,61.431c16.882-26.089,6.238-92.453,8.631-123.727c12.837,6.35,2.355,36.018,5.755,51.793
		c9.998-29.156,17.747-76.622,8.632-100.708c31.207-12.892,6.733-68.573,40.283-74.812c1.399,3.519,2.481,7.109,3.336,10.751
		c4.207-11.24,7.807-22.055,9.335-32.533c1.185-8.138,5.844-22.544-5.755-28.774c-21.946,23.131-22.936,67.216-40.283,94.952
		c-14.696-1.781-23.28,6.128-29.863,17.402C681.301,161.274,678.35,196.469,675.856,231.276z"/>
	<path fill="#F37056" d="M579.348,274.688c-1.434-9.114-2.142-18.679-2.366-28.551c-3.036,20.503-1.369,43.75,9.838,50.334
		c6.732-22.834,27.025-70.625,2.876-89.199c5.542-13.125,3.13-33.365,1.032-54.141c-0.779-0.859-1.652-1.627-2.747-2.169
		C585.586,182.237,596.23,248.598,579.348,274.688z"/>
	<path fill="#F37056" d="M642.368,184.844c-4.242,22.451-12.071,45.527,4.875,59.835c-2.124-18.231,1.93-45.861,0.506-62.69
		c-1.584,1.338-3.273,2.521-5.099,3.502C642.546,185.28,642.469,185.058,642.368,184.844z"/>
	<path fill="#F37056" d="M735.584,171.567c-3.144,20.468-4.104,39.732,3.734,55.847c28.184-15.123,24.885-76.587,63.302-71.934
		c1.431-2.284,2.714-4.715,3.945-7.202c-0.443-9.034-3.183-16.45-11.417-20.335c17.382-20.041,34.624-55.513,31.652-86.321
		c-9.649,3.774-13.927,12.925-23.02,17.264c-9.778,43.213-40.334,65.083-63.303,97.83
		C737.782,160.567,737.619,166.937,735.584,171.567z"/>
	<path fill="#F37056" d="M615.593,169.868c13.074-21.664,12.321-57.153,29.395-74.822c3.894-23.297,6.041-46.757-2.338-67.809
		c-32.509,6.044-10.543,58.502-37.533,73.487C611.578,115.878,609.23,151.007,615.593,169.868z"/>
	<path fill="#F37056" d="M989.466,132.274c-6.629,20.231-17.129,36.588-25.714,54.857c19.602,34.371-25.643,69.833-37.405,100.708
		c8.093-4.883,15.348-10.604,22.084-16.849c5.897-8.486,12.911-15.855,20.705-22.443c7.69-9.467,14.92-19.396,22.237-29.24
		c-6.167,3.535-12.203,5.396-17.828,3.588c2.141-21.838,30.402-17.553,37.405-34.528c-5.158-10.793-15.994,1.975-23.019-5.755
		c4.613-24.188,44.166-28.692,40.283-51.792c-12.752,5.465-18.552,17.894-34.528,20.142
		C993.687,143.325,992.877,136.5,989.466,132.274z"/>
	<path fill="#F37056" d="M913.12,153.84c-5.465,6.44-10.646,13.165-15.746,19.968c4.431,4.585,5.854,11.127,5.926,18.638
		c6.564-7.66,12.868-15.579,18.452-24.219c13.358-6.291,38.896-29.535,28.774-40.283C935.453,122.529,928.643,150.125,913.12,153.84
		z"/>
	<path fill="#F37056" d="M822.007,172.346c-3.472,14.691-4.96,30.12-2.122,46.437c16.079,3.051,12.233-12.965,17.264-20.142
		c10.699-15.258,23.033-28.164,34.16-41.958c-0.713-3.833-2.051-7.663-4.227-11.476c12.263-26.102,28.465-48.266,31.651-83.443
		c-13.611-8.084-16.202,7.488-25.896,11.51c3.957,9.104,0.631,9.615,0,20.142C855.191,119.025,840.405,147.489,822.007,172.346z"/>
</g>
</svg>
