<?xml version="1.0" encoding="UTF-8" standalone="no"?>
<!DOCTYPE svg PUBLIC "-//W3C//DTD SVG 1.1//EN"
 "http://www.w3.org/Graphics/SVG/1.1/DTD/svg11.dtd">
<!-- Generated by graphviz version 2.38.0 (20140413.2041)
 -->
<!-- Title: %3 Pages: 1 -->
 <svg width="750pt"
  viewBox="0.00 0.00 2500 700" xmlns="http://www.w3.org/2000/svg"
  xmlns:xlink="http://www.w3.org/1999/xlink">
<g id="graph0" class="graph" transform="scale(4.16667 4.16667) rotate(0) translate(4 148)">
<title>%3</title>
<polygon fill="white" stroke="none" points="-4,4 -4,-148 418,-148 418,4 -4,4"/>
<!-- table4 -->
<g id="node1" class="node"><title>table4</title>
<text text-anchor="start" x="21" y="-121.8" font-family="Times,serif" font-size="14.00">b</text>
</g>
<!-- table5 -->
<g id="node2" class="node"><title>table5</title>
<polygon fill="none" stroke="black" points="104,-116 104,-136 117,-136 117,-116 104,-116"/>
<text text-anchor="start" x="107" y="-121.8" font-family="Times,serif" font-size="14.00">3</text>
<polygon fill="none" stroke="black" points="117,-116 117,-136 130,-136 130,-116 117,-116"/>
<text text-anchor="start" x="120" y="-121.8" font-family="Times,serif" font-size="14.00"> &#160;</text>
</g>
<!-- table4&#45;&gt;table5 -->
<g id="edge4" class="edge"><title>table4:ptr4:c&#45;&gt;table5:pte4</title>
<path fill="none" stroke="black" d="M35,-126C35,-126 64.9658,-126 92.8715,-126"/>
<polygon fill="black" stroke="black" points="93,-129.5 103,-126 93,-122.5 93,-129.5"/>
</g>
<!-- table1 -->
<g id="node4" class="node"><title>table1</title>
<polygon fill="none" stroke="black" points="194,-62 194,-82 207,-82 207,-62 194,-62"/>
<text text-anchor="start" x="197" y="-67.8" font-family="Times,serif" font-size="14.00">5</text>
<polygon fill="none" stroke="black" points="207,-62 207,-82 220,-82 220,-62 207,-62"/>
<text text-anchor="start" x="210" y="-67.8" font-family="Times,serif" font-size="14.00"> &#160;</text>
</g>
<!-- table5&#45;&gt;table1 -->
<g id="edge5" class="edge"><title>table5:ptr5:c&#45;&gt;table1:pte0</title>
<path fill="none" stroke="black" d="M125,-126C125,-126 149.361,-81.2672 182.835,-73.2293"/>
<polygon fill="black" stroke="black" points="183.493,-76.6754 193,-72 182.652,-69.726 183.493,-76.6754"/>
</g>
<!-- table0 -->
<g id="node3" class="node"><title>table0</title>
<text text-anchor="start" x="110.893" y="-67.8" font-family="Times,serif" font-size="14.00">a</text>
</g>
<!-- table0&#45;&gt;table1 -->
<g id="edge1" class="edge"><title>table0:ptr0:c&#45;&gt;table1:pte0</title>
<path fill="none" stroke="black" d="M124,-72C124,-72 154.406,-72 182.723,-72"/>
<polygon fill="black" stroke="black" points="183,-75.5001 193,-72 183,-68.5001 183,-75.5001"/>
</g>
<!-- table2 -->
<g id="node5" class="node"><title>table2</title>
<polygon fill="none" stroke="black" points="281,-62 281,-82 301,-82 301,-62 281,-62"/>
<text text-anchor="start" x="284" y="-67.8" font-family="Times,serif" font-size="14.00">10</text>
<polygon fill="none" stroke="black" points="301,-62 301,-82 314,-82 314,-62 301,-62"/>
<text text-anchor="start" x="304" y="-67.8" font-family="Times,serif" font-size="14.00"> &#160;</text>
</g>
<!-- table1&#45;&gt;table2 -->
<g id="edge2" class="edge"><title>table1:ptr1:c&#45;&gt;table2:pte1</title>
<path fill="none" stroke="black" d="M215,-72C215,-72 243.393,-72 269.967,-72"/>
<polygon fill="black" stroke="black" points="270,-75.5001 280,-72 270,-68.5001 270,-75.5001"/>
</g>
<!-- table3 -->
<g id="node6" class="node"><title>table3</title>
<polygon fill="none" stroke="black" points="376,-62 376,-82 399,-82 399,-62 376,-62"/>
<text text-anchor="start" x="378.555" y="-67.8" font-family="Times,serif" font-size="14.00">Nil</text>
</g>
<!-- table2&#45;&gt;table3 -->
<g id="edge3" class="edge"><title>table2:ptr2:c&#45;&gt;table3:pte2</title>
<path fill="none" stroke="black" d="M309,-72C309,-72 342.423,-72 365.512,-72"/>
<polygon fill="black" stroke="black" points="365.825,-75.5001 375.825,-72 365.824,-68.5001 365.825,-75.5001"/>
</g>
<!-- table6 -->
<g id="node7" class="node"><title>table6</title>
<text text-anchor="start" x="20.8931" y="-13.8" font-family="Times,serif" font-size="14.00">c</text>
</g>
<!-- table7 -->
<g id="node8" class="node"><title>table7</title>
<polygon fill="none" stroke="black" points="104,-8 104,-28 117,-28 117,-8 104,-8"/>
<text text-anchor="start" x="107" y="-13.8" font-family="Times,serif" font-size="14.00">4</text>
<polygon fill="none" stroke="black" points="117,-8 117,-28 130,-28 130,-8 117,-8"/>
<text text-anchor="start" x="120" y="-13.8" font-family="Times,serif" font-size="14.00"> &#160;</text>
</g>
<!-- table6&#45;&gt;table7 -->
<g id="edge6" class="edge"><title>table6:ptr6:c&#45;&gt;table7:pte6</title>
<path fill="none" stroke="black" d="M34,-18C34,-18 64.4065,-18 92.7225,-18"/>
<polygon fill="black" stroke="black" points="93,-21.5001 103,-18 93,-14.5001 93,-21.5001"/>
</g>
<!-- table7&#45;&gt;table1 -->
<g id="edge7" class="edge"><title>table7:ptr7:c&#45;&gt;table1:pte0</title>
<path fill="none" stroke="black" d="M125,-18C125,-18 149.361,-62.7328 182.835,-70.7707"/>
<polygon fill="black" stroke="black" points="182.652,-74.274 193,-72 183.493,-67.3246 182.652,-74.274"/>
</g>
</g>
</svg>
