<?xml version="1.0" encoding="UTF-8" standalone="no"?>
<!DOCTYPE svg PUBLIC "-//W3C//DTD SVG 1.1//EN"
 "http://www.w3.org/Graphics/SVG/1.1/DTD/svg11.dtd">
<!-- Generated by graphviz version 2.44.1 (20200629.0846)
 -->
<!-- Pages: 1 -->
<svg width="750pt"
 viewBox="0.00 0.00 1000 550" xmlns="http://www.w3.org/2000/svg" xmlns:xlink="http://www.w3.org/1999/xlink">
<g id="graph0" class="graph" transform="scale(3.5 3.5) rotate(0) translate(4 148.09)">
<polygon fill="white" stroke="transparent" points="-4,4 -4,-148.09 274,-148.09 274,4 -4,4"/>
<!-- l1 -->
<g id="node1" class="node">
<title>l1</title>
<polygon fill="none" stroke="black" points="90,-52.59 90,-88.59 144,-88.59 144,-52.59 90,-52.59"/>
<text text-anchor="middle" x="104" y="-66.89" font-family="Times,serif" font-size="14.00">5</text>
<polyline fill="none" stroke="black" points="118,-52.59 118,-88.59 "/>
<text text-anchor="middle" x="131" y="-66.89" font-family="Times,serif" font-size="14.00"> </text>
</g>
<!-- l2 -->
<g id="node2" class="node">
<title>l2</title>
<polygon fill="none" stroke="black" points="180,-52.59 180,-88.59 234,-88.59 234,-52.59 180,-52.59"/>
<text text-anchor="middle" x="196" y="-66.89" font-family="Times,serif" font-size="14.00">10</text>
<polyline fill="none" stroke="black" points="212,-52.59 212,-88.59 "/>
<text text-anchor="middle" x="223" y="-66.89" font-family="Times,serif" font-size="14.00"> </text>
</g>
<!-- l1&#45;&gt;l2 -->
<g id="edge5" class="edge">
<title>l1:c&#45;&gt;l2:data</title>
<path fill="none" stroke="black" d="M144.31,-70.59C151.47,-70.59 160.69,-70.59 169.83,-70.59"/>
<polygon fill="black" stroke="black" points="170,-74.09 180,-70.59 170,-67.09 170,-74.09"/>
</g>
<!-- invisible_end -->
<g id="node4" class="node">
<title>invisible_end</title>
<ellipse fill="black" stroke="black" cx="270" cy="-46.59" rx="0" ry="0"/>
</g>
<!-- l2&#45;&gt;invisible_end -->
<g id="edge6" class="edge">
<title>l2:c&#45;&gt;invisible_end:n</title>
<path fill="none" stroke="black" d="M234.38,-69.89C248.29,-68.34 270,-63.4 270,-47.59"/>
</g>
<!-- invisible_start -->
<g id="node3" class="node">
<title>invisible_start</title>
<ellipse fill="black" stroke="black" cx="27" cy="-37.59" rx="0" ry="0"/>
</g>
<!-- invisible_start&#45;&gt;l1 -->
<g id="edge3" class="edge">
<title>invisible_start:n&#45;&gt;l1</title>
<path fill="none" stroke="black" d="M27,-38.59C27,-50.42 55.22,-59.08 79.87,-64.38"/>
<polygon fill="black" stroke="black" points="79.28,-67.83 89.78,-66.38 80.67,-60.97 79.28,-67.83"/>
</g>
<!-- invisible_start&#45;&gt;invisible_end -->
<g id="edge4" class="edge">
<title>invisible_start:s&#45;&gt;invisible_end:s</title>
<path fill="none" stroke="black" d="M27,-36.59C27,17.45 270,8.45 270,-45.59"/>
</g>
<!-- a -->
<g id="node5" class="node">
<title>a</title>
<polygon fill="none" stroke="black" points="0,-70.59 0,-106.59 54,-106.59 54,-70.59 0,-70.59"/>
<text text-anchor="middle" x="27" y="-84.89" font-family="Times,serif" font-size="14.00">a</text>
</g>
<!-- a&#45;&gt;l1 -->
<g id="edge1" class="edge">
<title>a&#45;&gt;l1:n</title>
<path fill="none" stroke="black" d="M54.22,-93.79C73.3,-97.06 97.79,-100.05 109.76,-96.58"/>
<polygon fill="black" stroke="black" points="112.24,-99.06 117,-89.59 107.38,-94.02 112.24,-99.06"/>
</g>
<!-- b -->
<g id="node6" class="node">
<title>b</title>
<polygon fill="none" stroke="black" points="90,-107.59 90,-143.59 144,-143.59 144,-107.59 90,-107.59"/>
<text text-anchor="middle" x="117" y="-121.89" font-family="Times,serif" font-size="14.00">b</text>
</g>
<!-- b&#45;&gt;l2 -->
<g id="edge2" class="edge">
<title>b&#45;&gt;l2:n</title>
<path fill="none" stroke="black" d="M144.22,-125.57C166.99,-124.22 197.48,-118.71 205.18,-99.44"/>
<polygon fill="black" stroke="black" points="208.62,-100.06 207,-89.59 201.74,-98.79 208.62,-100.06"/>
</g>
</g>
</svg>
