<?xml version="1.0" encoding="UTF-8" standalone="no"?>
<!DOCTYPE svg PUBLIC "-//W3C//DTD SVG 1.1//EN"
 "http://www.w3.org/Graphics/SVG/1.1/DTD/svg11.dtd">
<!-- Generated by graphviz version 12.1.2 (20240928.0832)
 -->
<!-- Pages: 1 -->
<svg
 viewBox="0.00 0.00 1771.00 775.00" xmlns="http://www.w3.org/2000/svg" xmlns:xlink="http://www.w3.org/1999/xlink">
<g id="graph0" class="graph" transform="scale(4.16667 4.16667) rotate(0) translate(4 182)">
<polygon fill="white" stroke="none" points="-4,4 -4,-182 420.98,-182 420.98,4 -4,4"/>
<g id="clust1" class="cluster">
<title>cluster_ColleagueB</title>
<polygon fill="none" stroke="black" points="8,-93 8,-170 408.98,-170 408.98,-93 8,-93"/>
<text text-anchor="middle" x="208.49" y="-152.7" font-family="Times,serif" font-size="14.00">Task A</text>
</g>
<g id="clust2" class="cluster">
<title>cluster_ColleagueA</title>
<polygon fill="none" stroke="black" points="8.72,-8 8.72,-85 408.25,-85 408.25,-8 8.72,-8"/>
<text text-anchor="middle" x="208.49" y="-67.7" font-family="Times,serif" font-size="14.00">Task B</text>
</g>
<!-- A1 -->
<g id="node1" class="node">
<title>A1</title>
<polygon fill="none" stroke="black" points="47.36,-137 16,-119 47.36,-101 78.73,-119 47.36,-137"/>
<text text-anchor="middle" x="47.36" y="-113.95" font-family="Times,serif" font-size="14.00">A1</text>
</g>
<!-- A2 -->
<g id="node2" class="node">
<title>A2</title>
<polygon fill="none" stroke="black" points="146.09,-137 114.73,-119 146.09,-101 177.46,-119 146.09,-137"/>
<text text-anchor="middle" x="146.09" y="-113.95" font-family="Times,serif" font-size="14.00">A2</text>
</g>
<!-- A1&#45;&gt;A2 -->
<g id="edge1" class="edge">
<title>A1&#45;&gt;A2</title>
<path fill="none" stroke="black" d="M79.5,-119C86.84,-119 94.78,-119 102.52,-119"/>
<polygon fill="black" stroke="black" points="102.5,-122.5 112.5,-119 102.5,-115.5 102.5,-122.5"/>
</g>
<!-- A0_1 -->
<!-- A2&#45;&gt;A0_1 -->
<g id="edge2" class="edge">
<title>A2&#45;&gt;A0_1:c</title>
<path fill="none" stroke="black" d="M178.25,-119C204.37,-119 239.35,-119 252.02,-119"/>
<polygon fill="black" stroke="black" points="255.85,-114 255.85,-124 253.85,-124 253.85,-114 255.85,-114"/>
<polyline fill="none" stroke="black" points="256.85,-119 251.85,-119"/>
</g>
<!-- A3 -->
<g id="node4" class="node">
<title>A3</title>
<polygon fill="none" stroke="black" points="369.61,-137 338.25,-119 369.61,-101 400.98,-119 369.61,-137"/>
<text text-anchor="middle" x="369.61" y="-113.95" font-family="Times,serif" font-size="14.00">A3</text>
</g>
<!-- A0_1&#45;&gt;A3 -->
<g id="edge3" class="edge">
<title>A0_1&#45;&gt;A3</title>
<path fill="none" stroke="black" d="M263.69,-119C274.58,-119 301.94,-119 326,-119"/>
<polygon fill="black" stroke="black" points="259.85,-124 259.85,-114 261.85,-114 261.85,-124 259.85,-124"/>
<polyline fill="none" stroke="black" points="258.85,-119 263.85,-119"/>
<polygon fill="black" stroke="black" points="325.94,-122.5 335.94,-119 325.94,-115.5 325.94,-122.5"/>
</g>
<!-- B1 -->
<g id="node5" class="node">
<title>B1</title>
<polygon fill="none" stroke="black" points="47.36,-52 16.72,-34 47.36,-16 78.01,-34 47.36,-52"/>
<text text-anchor="middle" x="47.36" y="-28.95" font-family="Times,serif" font-size="14.00">B1</text>
</g>
<!-- B2 -->
<g id="node6" class="node">
<title>B2</title>
<polygon fill="none" stroke="black" points="146.09,-52 115.45,-34 146.09,-16 176.74,-34 146.09,-52"/>
<text text-anchor="middle" x="146.09" y="-28.95" font-family="Times,serif" font-size="14.00">B2</text>
</g>
<!-- B1&#45;&gt;B2 -->
<g id="edge4" class="edge">
<title>B1&#45;&gt;B2</title>
<path fill="none" stroke="black" d="M78.97,-34C86.72,-34 95.18,-34 103.37,-34"/>
<polygon fill="black" stroke="black" points="103.17,-37.5 113.17,-34 103.17,-30.5 103.17,-37.5"/>
</g>
<!-- B3 -->
<g id="node7" class="node">
<title>B3</title>
<polygon fill="none" stroke="black" points="257.85,-52 227.21,-34 257.85,-16 288.49,-34 257.85,-52"/>
<text text-anchor="middle" x="257.85" y="-28.95" font-family="Times,serif" font-size="14.00">B3</text>
</g>
<!-- B2&#45;&gt;B3 -->
<g id="edge5" class="edge">
<title>B2&#45;&gt;B3</title>
<path fill="none" stroke="black" d="M177.67,-34C189.21,-34 202.54,-34 214.93,-34"/>
<polygon fill="black" stroke="black" points="214.93,-37.5 224.93,-34 214.93,-30.5 214.93,-37.5"/>
</g>
<!-- B3&#45;&gt;A3 -->
<g id="edge7" class="edge">
<title>B3&#45;&gt;A3</title>
<path fill="none" stroke="black" d="M271.87,-44.08C290.26,-58.32 324.07,-84.51 346.45,-101.84"/>
<polygon fill="black" stroke="black" points="344.02,-104.38 354.07,-107.74 348.3,-98.85 344.02,-104.38"/>
</g>
<!-- B4 -->
<g id="node8" class="node">
<title>B4</title>
<polygon fill="none" stroke="black" points="369.61,-52 338.97,-34 369.61,-16 400.25,-34 369.61,-52"/>
<text text-anchor="middle" x="369.61" y="-28.95" font-family="Times,serif" font-size="14.00">B4</text>
</g>
<!-- B3&#45;&gt;B4 -->
<g id="edge6" class="edge">
<title>B3&#45;&gt;B4</title>
<path fill="none" stroke="black" d="M289.43,-34C300.96,-34 314.3,-34 326.69,-34"/>
<polygon fill="black" stroke="black" points="326.69,-37.5 336.69,-34 326.69,-30.5 326.69,-37.5"/>
</g>
</g>
</svg>
