<svg viewBox="0.00 0.00 1000.00 1000.00" xmlns="http://www.w3.org/2000/svg" xmlns:xlink="http://www.w3.org/1999/xlink" width="50%"
alt="Three tables: tables s1 and s2 representing those strings on the
stack, respectively, and both pointing to the same string data on the heap." class="center">
    <g id="graph0" class="graph" transform="scale(4.1667 4.1667) rotate(0) translate(4 238)">
        <title>%3</title>
        <polygon fill="var(--bg, white)" stroke="transparent" points="-4,4 -4,-238 233,-238 233,4 -4,4" />
        <g id="node1" class="node">
            <title>table0</title>
            <polyline fill="none" stroke="var(--fg, black)" points="8,-210 96,-210 " />
            <text text-anchor="start" x="45.7759" y="-215.8" font-family="Times,serif" font-size="14.00" fill="var(--fg, black)">s1</text>
            <polygon fill="none" stroke="var(--fg, black)" points="8,-190 8,-210 60,-210 60,-190 8,-190" />
            <text text-anchor="start" x="18.8413" y="-195.8" font-family="Times,serif" font-size="14.00" fill="var(--fg, black)">name</text>
            <polygon fill="none" stroke="var(--fg, black)" points="60,-190 60,-210 96,-210 96,-190 60,-190" />
            <text text-anchor="start" x="62.8413" y="-195.8" font-family="Times,serif" font-size="14.00" fill="var(--fg, black)">value</text>
            <polygon fill="none" stroke="var(--fg, black)" points="8,-170 8,-190 60,-190 60,-170 8,-170" />
            <text text-anchor="start" x="26.2241" y="-175.8" font-family="Times,serif" font-size="14.00" fill="var(--fg, black)">ptr</text>
            <polygon fill="none" stroke="var(--fg, black)" points="60,-170 60,-190 96,-190 96,-170 60,-170" />
            <polygon fill="none" stroke="var(--fg, black)" points="8,-150 8,-170 60,-170 60,-150 8,-150" />
            <text text-anchor="start" x="25.4482" y="-155.8" font-family="Times,serif" font-size="14.00" fill="var(--fg, black)">len</text>
            <polygon fill="none" stroke="var(--fg, black)" points="60,-150 60,-170 96,-170 96,-150 60,-150" />
            <text text-anchor="start" x="74.5" y="-155.8" font-family="Times,serif" font-size="14.00" fill="var(--fg, black)">5</text>
            <polygon fill="none" stroke="var(--fg, black)" points="8,-130 8,-150 60,-150 60,-130 8,-130" />
            <text text-anchor="start" x="10.6826" y="-135.8" font-family="Times,serif" font-size="14.00" fill="var(--fg, black)">capacity</text>
            <polygon fill="none" stroke="var(--fg, black)" points="60,-130 60,-150 96,-150 96,-130 60,-130" />
            <text text-anchor="start" x="74.5" y="-135.8" font-family="Times,serif" font-size="14.00" fill="var(--fg, black)">5</text>
        </g>
        <g id="node3" class="node">
            <title>table1</title>
            <polygon fill="none" stroke="var(--fg, black)" points="148.5,-127 148.5,-147 185.5,-147 185.5,-127 148.5,-127" />
            <text text-anchor="start" x="151.4482" y="-132.8" font-family="Times,serif" font-size="14.00" fill="var(--fg, black)">index</text>
            <polygon fill="none" stroke="var(--fg, black)" points="185.5,-127 185.5,-147 221.5,-147 221.5,-127 185.5,-127" />
            <text text-anchor="start" x="188.3413" y="-132.8" font-family="Times,serif" font-size="14.00" fill="var(--fg, black)">value</text>
            <polygon fill="none" stroke="var(--fg, black)" points="148.5,-107 148.5,-127 185.5,-127 185.5,-107 148.5,-107" />
            <text text-anchor="start" x="163.5" y="-112.8" font-family="Times,serif" font-size="14.00" fill="var(--fg, black)">0</text>
            <polygon fill="none" stroke="var(--fg, black)" points="185.5,-107 185.5,-127 221.5,-127 221.5,-107 185.5,-107" />
            <text text-anchor="start" x="200" y="-112.8" font-family="Times,serif" font-size="14.00" fill="var(--fg, black)">h</text>
            <polygon fill="none" stroke="var(--fg, black)" points="148.5,-87 148.5,-107 185.5,-107 185.5,-87 148.5,-87" />
            <text text-anchor="start" x="163.5" y="-92.8" font-family="Times,serif" font-size="14.00" fill="var(--fg, black)">1</text>
            <polygon fill="none" stroke="var(--fg, black)" points="185.5,-87 185.5,-107 221.5,-107 221.5,-87 185.5,-87" />
            <text text-anchor="start" x="200.3931" y="-92.8" font-family="Times,serif" font-size="14.00" fill="var(--fg, black)">e</text>
            <polygon fill="none" stroke="var(--fg, black)" points="148.5,-67 148.5,-87 185.5,-87 185.5,-67 148.5,-67" />
            <text text-anchor="start" x="163.5" y="-72.8" font-family="Times,serif" font-size="14.00" fill="var(--fg, black)">2</text>
            <polygon fill="none" stroke="var(--fg, black)" points="185.5,-67 185.5,-87 221.5,-87 221.5,-67 185.5,-67" />
            <text text-anchor="start" x="201.5552" y="-72.8" font-family="Times,serif" font-size="14.00" fill="var(--fg, black)">l</text>
            <polygon fill="none" stroke="var(--fg, black)" points="148.5,-47 148.5,-67 185.5,-67 185.5,-47 148.5,-47" />
            <text text-anchor="start" x="163.5" y="-52.8" font-family="Times,serif" font-size="14.00" fill="var(--fg, black)">3</text>
            <polygon fill="none" stroke="var(--fg, black)" points="185.5,-47 185.5,-67 221.5,-67 221.5,-47 185.5,-47" />
            <text text-anchor="start" x="201.5552" y="-52.8" font-family="Times,serif" font-size="14.00" fill="var(--fg, black)">l</text>
            <polygon fill="none" stroke="var(--fg, black)" points="148.5,-27 148.5,-47 185.5,-47 185.5,-27 148.5,-27" />
            <text text-anchor="start" x="163.5" y="-32.8" font-family="Times,serif" font-size="14.00" fill="var(--fg, black)">4</text>
            <polygon fill="none" stroke="var(--fg, black)" points="185.5,-27 185.5,-47 221.5,-47 221.5,-27 185.5,-27" />
            <text text-anchor="start" x="200" y="-32.8" font-family="Times,serif" font-size="14.00" fill="var(--fg, black)">o</text>
        </g>
        <g id="edge1" class="edge">
            <title>table0:c&#45;&gt;table1:pointee</title>
            <path fill="none" stroke="var(--fg, black)" d="M78,-180C78,-180 101.9982,-126.912 138.4405,-118.2023" />
            <polygon fill="var(--fg, black)" stroke="var(--fg, black)" points="138.986,-121.6621 148.5,-117 138.1553,-114.7115 138.986,-121.6621" />
        </g>
        <g id="node2" class="node">
            <title>table3</title>
            <polyline fill="none" stroke="var(--fg, black)" points="8,-84 96,-84 " />
            <text text-anchor="start" x="45.7759" y="-89.8" font-family="Times,serif" font-size="14.00" fill="var(--fg, black)">s2</text>
            <polygon fill="none" stroke="var(--fg, black)" points="8,-64 8,-84 60,-84 60,-64 8,-64" />
            <text text-anchor="start" x="18.8413" y="-69.8" font-family="Times,serif" font-size="14.00" fill="var(--fg, black)">name</text>
            <polygon fill="none" stroke="var(--fg, black)" points="60,-64 60,-84 96,-84 96,-64 60,-64" />
            <text text-anchor="start" x="62.8413" y="-69.8" font-family="Times,serif" font-size="14.00" fill="var(--fg, black)">value</text>
            <polygon fill="none" stroke="var(--fg, black)" points="8,-44 8,-64 60,-64 60,-44 8,-44" />
            <text text-anchor="start" x="26.2241" y="-49.8" font-family="Times,serif" font-size="14.00" fill="var(--fg, black)">ptr</text>
            <polygon fill="none" stroke="var(--fg, black)" points="60,-44 60,-64 96,-64 96,-44 60,-44" />
            <polygon fill="none" stroke="var(--fg, black)" points="8,-24 8,-44 60,-44 60,-24 8,-24" />
            <text text-anchor="start" x="25.4482" y="-29.8" font-family="Times,serif" font-size="14.00" fill="var(--fg, black)">len</text>
            <polygon fill="none" stroke="var(--fg, black)" points="60,-24 60,-44 96,-44 96,-24 60,-24" />
            <text text-anchor="start" x="74.5" y="-29.8" font-family="Times,serif" font-size="14.00" fill="var(--fg, black)">5</text>
            <polygon fill="none" stroke="var(--fg, black)" points="8,-4 8,-24 60,-24 60,-4 8,-4" />
            <text text-anchor="start" x="10.6826" y="-9.8" font-family="Times,serif" font-size="14.00" fill="var(--fg, black)">capacity</text>
            <polygon fill="none" stroke="var(--fg, black)" points="60,-4 60,-24 96,-24 96,-4 60,-4" />
            <text text-anchor="start" x="74.5" y="-9.8" font-family="Times,serif" font-size="14.00" fill="var(--fg, black)">5</text>
        </g>
        <g id="edge2" class="edge">
            <title>table3:c&#45;&gt;table1:pointee</title>
            <path fill="none" stroke="var(--fg, black)" d="M78,-54C78,-54 101.9982,-107.088 138.4405,-115.7977" />
            <polygon fill="var(--fg, black)" stroke="var(--fg, black)" points="138.1553,-119.2885 148.5,-117 138.986,-112.3379 138.1553,-119.2885" />
        </g>
    </g>
</svg>