<?xml version="1.0" encoding="UTF-8" standalone="no"?>
<!DOCTYPE svg PUBLIC "-//W3C//DTD SVG 1.1//EN"
 "http://www.w3.org/Graphics/SVG/1.1/DTD/svg11.dtd">
<!-- Generated by graphviz version 12.1.2 (20240928.0832)
 -->
<!-- Pages: 1 -->
<svg
 viewBox="0.00 0.00 1104.00 1408.00" xmlns="http://www.w3.org/2000/svg" xmlns:xlink="http://www.w3.org/1999/xlink">
<g id="graph0" class="graph" transform="scale(4.16667 4.16667) rotate(0) translate(4 334)">
<polygon fill="white" stroke="none" points="-4,4 -4,-334 261,-334 261,4 -4,4"/>
<g id="clust1" class="cluster">
<title>cluster_stack</title>
</g>
<g id="clust2" class="cluster">
<title>cluster_heap</title>
</g>
<!-- a -->
<!-- s -->
<g id="node2" class="node">
<title>s</title>
<polyline fill="none" stroke="black" points="24,-288 110,-288"/>
<text text-anchor="start" x="64.38" y="-293.7" font-family="Times,serif" font-size="14.00">s</text>
<polygon fill="none" stroke="black" points="24,-266 24,-288 75,-288 75,-266 24,-266"/>
<text text-anchor="start" x="34.5" y="-271.7" font-family="Times,serif" font-size="14.00">name</text>
<polygon fill="none" stroke="black" points="75,-266 75,-288 110,-288 110,-266 75,-266"/>
<text text-anchor="start" x="77.88" y="-271.7" font-family="Times,serif" font-size="14.00">value</text>
<polygon fill="none" stroke="black" points="24,-244 24,-266 75,-266 75,-244 24,-244"/>
<text text-anchor="start" x="42" y="-249.7" font-family="Times,serif" font-size="14.00">ptr</text>
<polygon fill="none" stroke="black" points="75,-244 75,-266 110,-266 110,-244 75,-244"/>
<polygon fill="none" stroke="black" points="24,-222 24,-244 75,-244 75,-222 24,-222"/>
<text text-anchor="start" x="41.25" y="-227.7" font-family="Times,serif" font-size="14.00">len</text>
<polygon fill="none" stroke="black" points="75,-222 75,-244 110,-244 110,-222 75,-222"/>
<text text-anchor="start" x="89.12" y="-227.7" font-family="Times,serif" font-size="14.00">4</text>
<polygon fill="none" stroke="black" points="24,-200 24,-222 75,-222 75,-200 24,-200"/>
<text text-anchor="start" x="27" y="-205.7" font-family="Times,serif" font-size="14.00">capacity</text>
<polygon fill="none" stroke="black" points="75,-200 75,-222 110,-222 110,-200 75,-200"/>
<text text-anchor="start" x="89.12" y="-205.7" font-family="Times,serif" font-size="14.00">4</text>
</g>
<!-- ahoy -->
<g id="node4" class="node">
<title>ahoy</title>
<polygon fill="none" stroke="black" points="162,-266 162,-288 198,-288 198,-266 162,-266"/>
<text text-anchor="start" x="165" y="-271.7" font-family="Times,serif" font-size="14.00">index</text>
<polygon fill="none" stroke="black" points="198,-266 198,-288 233,-288 233,-266 198,-266"/>
<text text-anchor="start" x="200.88" y="-271.7" font-family="Times,serif" font-size="14.00">value</text>
<polygon fill="none" stroke="black" points="162,-244 162,-266 198,-266 198,-244 162,-244"/>
<text text-anchor="start" x="176.62" y="-249.7" font-family="Times,serif" font-size="14.00">0</text>
<polygon fill="none" stroke="black" points="198,-244 198,-266 233,-266 233,-244 198,-244"/>
<text text-anchor="start" x="212.5" y="-249.7" font-family="Times,serif" font-size="14.00">a</text>
<polygon fill="none" stroke="black" points="162,-222 162,-244 198,-244 198,-222 162,-222"/>
<text text-anchor="start" x="176.62" y="-227.7" font-family="Times,serif" font-size="14.00">1</text>
<polygon fill="none" stroke="black" points="198,-222 198,-244 233,-244 233,-222 198,-222"/>
<text text-anchor="start" x="212.12" y="-227.7" font-family="Times,serif" font-size="14.00">h</text>
<polygon fill="none" stroke="black" points="162,-200 162,-222 198,-222 198,-200 162,-200"/>
<text text-anchor="start" x="176.62" y="-205.7" font-family="Times,serif" font-size="14.00">2</text>
<polygon fill="none" stroke="black" points="198,-200 198,-222 233,-222 233,-200 198,-200"/>
<text text-anchor="start" x="212.12" y="-205.7" font-family="Times,serif" font-size="14.00">o</text>
<polygon fill="none" stroke="black" points="162,-178 162,-200 198,-200 198,-178 162,-178"/>
<text text-anchor="start" x="176.62" y="-183.7" font-family="Times,serif" font-size="14.00">3</text>
<polygon fill="none" stroke="black" points="198,-178 198,-200 233,-200 233,-178 198,-178"/>
<text text-anchor="start" x="212.12" y="-183.7" font-family="Times,serif" font-size="14.00">y</text>
</g>
<!-- s&#45;&gt;ahoy -->
<g id="edge1" class="edge">
<title>s:c&#45;&gt;ahoy:pointee</title>
<path fill="none" stroke="black" d="M93.5,-255C93.5,-255 130.29,-255 149.55,-255"/>
<polygon fill="black" stroke="black" points="149.49,-258.5 159.49,-255 149.49,-251.5 149.49,-258.5"/>
</g>
<!-- hello -->
<g id="node3" class="node">
<title>hello</title>
<polygon fill="gray" stroke="none" points="162,-20 162,-152 233,-152 233,-20 162,-20"/>
<polygon fill="none" stroke="black" points="162,-130 162,-152 198,-152 198,-130 162,-130"/>
<text text-anchor="start" x="165" y="-135.7" font-family="Times,serif" font-size="14.00">index</text>
<polygon fill="none" stroke="black" points="198,-130 198,-152 233,-152 233,-130 198,-130"/>
<text text-anchor="start" x="200.88" y="-135.7" font-family="Times,serif" font-size="14.00">value</text>
<polygon fill="none" stroke="black" points="162,-108 162,-130 198,-130 198,-108 162,-108"/>
<text text-anchor="start" x="176.62" y="-113.7" font-family="Times,serif" font-size="14.00">0</text>
<polygon fill="none" stroke="black" points="198,-108 198,-130 233,-130 233,-108 198,-108"/>
<text text-anchor="start" x="212.12" y="-113.7" font-family="Times,serif" font-size="14.00">h</text>
<polygon fill="none" stroke="black" points="162,-86 162,-108 198,-108 198,-86 162,-86"/>
<text text-anchor="start" x="176.62" y="-91.7" font-family="Times,serif" font-size="14.00">1</text>
<polygon fill="none" stroke="black" points="198,-86 198,-108 233,-108 233,-86 198,-86"/>
<text text-anchor="start" x="212.5" y="-91.7" font-family="Times,serif" font-size="14.00">e</text>
<polygon fill="none" stroke="black" points="162,-64 162,-86 198,-86 198,-64 162,-64"/>
<text text-anchor="start" x="176.62" y="-69.7" font-family="Times,serif" font-size="14.00">2</text>
<polygon fill="none" stroke="black" points="198,-64 198,-86 233,-86 233,-64 198,-64"/>
<text text-anchor="start" x="213.62" y="-69.7" font-family="Times,serif" font-size="14.00">l</text>
<polygon fill="none" stroke="black" points="162,-42 162,-64 198,-64 198,-42 162,-42"/>
<text text-anchor="start" x="176.62" y="-47.7" font-family="Times,serif" font-size="14.00">3</text>
<polygon fill="none" stroke="black" points="198,-42 198,-64 233,-64 233,-42 198,-42"/>
<text text-anchor="start" x="213.62" y="-47.7" font-family="Times,serif" font-size="14.00">l</text>
<polygon fill="none" stroke="black" points="162,-20 162,-42 198,-42 198,-20 162,-20"/>
<text text-anchor="start" x="176.62" y="-25.7" font-family="Times,serif" font-size="14.00">4</text>
<polygon fill="none" stroke="black" points="198,-20 198,-42 233,-42 233,-20 198,-20"/>
<text text-anchor="start" x="212.12" y="-25.7" font-family="Times,serif" font-size="14.00">o</text>
</g>
</g>
</svg>
