<svg viewBox="0.00 0.00 363.00 342.00" xmlns="http://www.w3.org/2000/svg" xmlns:xlink="http://www.w3.org/1999/xlink" width="50%">
    <g id="graph0" class="graph" transform="scale(4.1667 4.1667) rotate(0) translate(4 78)">
        <title>%3</title>
        <polygon fill="var(--bg, white)" stroke="transparent" points="-4,4 -4,-78 83,-78 83,4 -4,4" />
        <g id="node1" class="node">
            <title>table0</title>
            <polyline fill="none" stroke="var(--fg, black)" points="8.5,-50 71.5,-50 " />
            <text text-anchor="start" x="25.6069" y="-55.8" font-family="Times,serif" font-size="14.00" fill="var(--fg, black)">Cons</text>
            <polygon fill="none" stroke="var(--fg, black)" points="8.5,-4 8.5,-50 31.5,-50 31.5,-4 8.5,-4" />
            <text text-anchor="start" x="11.0552" y="-22.8" font-family="Times,serif" font-size="14.00" fill="var(--fg, black)">i32</text>
            <polygon fill="none" stroke="var(--fg, black)" points="31.5,-4 31.5,-50 71.5,-50 71.5,-4 31.5,-4" />
            <polyline fill="none" stroke="var(--fg, black)" points="34.5,-27 68.5,-27 " />
            <text text-anchor="start" x="39.8311" y="-32.8" font-family="Times,serif" font-size="14.00" fill="var(--fg, black)">Box</text>
            <polygon fill="none" stroke="var(--fg, black)" points="34.5,-7 34.5,-27 68.5,-27 68.5,-7 34.5,-7" />
            <text text-anchor="start" x="37.1172" y="-12.8" font-family="Times,serif" font-size="14.00" fill="var(--fg, black)">usize</text>
        </g>
    </g>
</svg>