<?xml version="1.0" encoding="UTF-8" standalone="no"?>
<!DOCTYPE svg PUBLIC "-//W3C//DTD SVG 1.1//EN"
 "http://www.w3.org/Graphics/SVG/1.1/DTD/svg11.dtd">
<!-- Generated by graphviz version 12.0.0 (20240704.0754)
 -->
<!-- Pages: 1 -->
<svg height="640pt"
 viewBox="0.00 0.00 1662 775" xmlns="http://www.w3.org/2000/svg" xmlns:xlink="http://www.w3.org/1999/xlink">
<g id="graph0" class="graph" transform="scale(4.16667 4.16667) rotate(0) translate(4 182)">
<polygon fill="white" stroke="none" points="-4,4 -4,-182 394.92,-182 394.92,4 -4,4"/>
<g id="clust1" class="cluster">
<title>cluster_ColleagueA</title>
<polygon fill="none" stroke="black" points="8,-8 8,-85 382.92,-85 382.92,-8 8,-8"/>
<text text-anchor="middle" x="195.46" y="-67.7" font-family="Times,serif" font-size="14.00">Task 1</text>
</g>
<g id="clust2" class="cluster">
<title>cluster_ColleagueB</title>
<polygon fill="none" stroke="black" points="8.72,-93 8.72,-170 283.47,-170 283.47,-93 8.72,-93"/>
<text text-anchor="middle" x="146.09" y="-152.7" font-family="Times,serif" font-size="14.00">Task 2</text>
</g>
<!-- A1 -->
<g id="node1" class="node">
<title>A1</title>
<polygon fill="none" stroke="black" points="47.36,-52 16,-34 47.36,-16 78.73,-34 47.36,-52"/>
<text text-anchor="middle" x="47.36" y="-28.95" font-family="Times,serif" font-size="14.00">A1</text>
</g>
<!-- A2 -->
<g id="node2" class="node">
<title>A2</title>
<polygon fill="none" stroke="black" points="146.09,-52 114.73,-34 146.09,-16 177.46,-34 146.09,-52"/>
<text text-anchor="middle" x="146.09" y="-28.95" font-family="Times,serif" font-size="14.00">A2</text>
</g>
<!-- A1&#45;&gt;A2 -->
<g id="edge1" class="edge">
<title>A1&#45;&gt;A2</title>
<path fill="none" stroke="black" d="M79.5,-34C86.84,-34 94.78,-34 102.52,-34"/>
<polygon fill="black" stroke="black" points="102.5,-37.5 112.5,-34 102.5,-30.5 102.5,-37.5"/>
</g>
<!-- A3 -->
<g id="node3" class="node">
<title>A3</title>
<polygon fill="none" stroke="black" points="244.82,-52 213.46,-34 244.82,-16 276.19,-34 244.82,-52"/>
<text text-anchor="middle" x="244.82" y="-28.95" font-family="Times,serif" font-size="14.00">A3</text>
</g>
<!-- A2&#45;&gt;A3 -->
<g id="edge2" class="edge">
<title>A2&#45;&gt;A3</title>
<path fill="none" stroke="black" d="M178.23,-34C185.57,-34 193.51,-34 201.25,-34"/>
<polygon fill="black" stroke="black" points="201.23,-37.5 211.23,-34 201.23,-30.5 201.23,-37.5"/>
</g>
<!-- A4 -->
<g id="node4" class="node">
<title>A4</title>
<polygon fill="none" stroke="black" points="343.55,-52 312.19,-34 343.55,-16 374.92,-34 343.55,-52"/>
<text text-anchor="middle" x="343.55" y="-28.95" font-family="Times,serif" font-size="14.00">A4</text>
</g>
<!-- A3&#45;&gt;A4 -->
<g id="edge3" class="edge">
<title>A3&#45;&gt;A4</title>
<path fill="none" stroke="black" d="M276.96,-34C284.3,-34 292.24,-34 299.98,-34"/>
<polygon fill="black" stroke="black" points="299.96,-37.5 309.96,-34 299.96,-30.5 299.96,-37.5"/>
</g>
<!-- B1 -->
<g id="node5" class="node">
<title>B1</title>
<polygon fill="none" stroke="black" points="47.36,-137 16.72,-119 47.36,-101 78.01,-119 47.36,-137"/>
<text text-anchor="middle" x="47.36" y="-113.95" font-family="Times,serif" font-size="14.00">B1</text>
</g>
<!-- B2 -->
<g id="node6" class="node">
<title>B2</title>
<polygon fill="none" stroke="black" points="146.09,-137 115.45,-119 146.09,-101 176.74,-119 146.09,-137"/>
<text text-anchor="middle" x="146.09" y="-113.95" font-family="Times,serif" font-size="14.00">B2</text>
</g>
<!-- B1&#45;&gt;B2 -->
<g id="edge4" class="edge">
<title>B1&#45;&gt;B2</title>
<path fill="none" stroke="black" d="M78.97,-119C86.72,-119 95.18,-119 103.37,-119"/>
<polygon fill="black" stroke="black" points="103.17,-122.5 113.17,-119 103.17,-115.5 103.17,-122.5"/>
</g>
<!-- B3 -->
<g id="node7" class="node">
<title>B3</title>
<polygon fill="none" stroke="black" points="244.82,-137 214.18,-119 244.82,-101 275.47,-119 244.82,-137"/>
<text text-anchor="middle" x="244.82" y="-113.95" font-family="Times,serif" font-size="14.00">B3</text>
</g>
<!-- B2&#45;&gt;B3 -->
<g id="edge5" class="edge">
<title>B2&#45;&gt;B3</title>
<path fill="none" stroke="black" d="M177.7,-119C185.45,-119 193.91,-119 202.1,-119"/>
<polygon fill="black" stroke="black" points="201.9,-122.5 211.9,-119 201.9,-115.5 201.9,-122.5"/>
</g>
</g>
</svg>
