<svg viewBox="0.00 0.00 1000.00 1279.00" xmlns="http://www.w3.org/2000/svg" xmlns:xlink="http://www.w3.org/1999/xlink" width="50%"
alt="Three tables: a table representing the stack data of s, which points
to the byte at index 0 in a table of the string data &quot;hello world&quot; on
the heap. The third table rep-resents the stack data of the slice world, which
has a length value of 5 and points to byte 6 of the heap data table." class="center">
    <g id="14-06-graph0" class="graph" transform="scale(4.1667 4.1667) rotate(0) translate(4 275)">
        <title>Figure 4-6</title>
        <polygon fill="var(--bg, white)" stroke="transparent" points="-4,4 -4,-275 233,-275 233,4 -4,4" />
        <g id="14-06-node1" class="node">
            <title>table0</title>
            <polyline fill="none" stroke="var(--fg, black)" points="16,-121 88,-121 " />
            <text text-anchor="start" x="35.6689" y="-126.8" font-family="Times,serif" font-size="14.00" fill="var(--fg, black)">world</text>
            <polygon fill="none" stroke="var(--fg, black)" points="16,-101 16,-121 52,-121 52,-101 16,-101" />
            <text text-anchor="start" x="18.8413" y="-106.8" font-family="Times,serif" font-size="14.00" fill="var(--fg, black)">name</text>
            <polygon fill="none" stroke="var(--fg, black)" points="52,-101 52,-121 88,-121 88,-101 52,-101" />
            <text text-anchor="start" x="54.8413" y="-106.8" font-family="Times,serif" font-size="14.00" fill="var(--fg, black)">value</text>
            <polygon fill="none" stroke="var(--fg, black)" points="16,-81 16,-101 52,-101 52,-81 16,-81" />
            <text text-anchor="start" x="26.2241" y="-86.8" font-family="Times,serif" font-size="14.00" fill="var(--fg, black)">ptr</text>
            <polygon fill="none" stroke="var(--fg, black)" points="52,-81 52,-101 88,-101 88,-81 52,-81" />
            <polygon fill="none" stroke="var(--fg, black)" points="16,-61 16,-81 52,-81 52,-61 16,-61" />
            <text text-anchor="start" x="25.4482" y="-66.8" font-family="Times,serif" font-size="14.00" fill="var(--fg, black)">len</text>
            <polygon fill="none" stroke="var(--fg, black)" points="52,-61 52,-81 88,-81 88,-61 52,-61" />
            <text text-anchor="start" x="66.5" y="-66.8" font-family="Times,serif" font-size="14.00" fill="var(--fg, black)">5</text>
        </g>
        <g id="14-06-node3" class="node">
            <title>table4</title>
            <polygon fill="none" stroke="var(--fg, black)" points="148.5,-224 148.5,-244 185.5,-244 185.5,-224 148.5,-224" />
            <text text-anchor="start" x="151.4482" y="-229.8" font-family="Times,serif" font-size="14.00" fill="var(--fg, black)">index</text>
            <polygon fill="none" stroke="var(--fg, black)" points="185.5,-224 185.5,-244 221.5,-244 221.5,-224 185.5,-224" />
            <text text-anchor="start" x="188.3413" y="-229.8" font-family="Times,serif" font-size="14.00" fill="var(--fg, black)">value</text>
            <polygon fill="none" stroke="var(--fg, black)" points="148.5,-204 148.5,-224 185.5,-224 185.5,-204 148.5,-204" />
            <text text-anchor="start" x="163.5" y="-209.8" font-family="Times,serif" font-size="14.00" fill="var(--fg, black)">0</text>
            <polygon fill="none" stroke="var(--fg, black)" points="185.5,-204 185.5,-224 221.5,-224 221.5,-204 185.5,-204" />
            <text text-anchor="start" x="200" y="-209.8" font-family="Times,serif" font-size="14.00" fill="var(--fg, black)">h</text>
            <polygon fill="none" stroke="var(--fg, black)" points="148.5,-184 148.5,-204 185.5,-204 185.5,-184 148.5,-184" />
            <text text-anchor="start" x="163.5" y="-189.8" font-family="Times,serif" font-size="14.00" fill="var(--fg, black)">1</text>
            <polygon fill="none" stroke="var(--fg, black)" points="185.5,-184 185.5,-204 221.5,-204 221.5,-184 185.5,-184" />
            <text text-anchor="start" x="200.3931" y="-189.8" font-family="Times,serif" font-size="14.00" fill="var(--fg, black)">e</text>
            <polygon fill="none" stroke="var(--fg, black)" points="148.5,-164 148.5,-184 185.5,-184 185.5,-164 148.5,-164" />
            <text text-anchor="start" x="163.5" y="-169.8" font-family="Times,serif" font-size="14.00" fill="var(--fg, black)">2</text>
            <polygon fill="none" stroke="var(--fg, black)" points="185.5,-164 185.5,-184 221.5,-184 221.5,-164 185.5,-164" />
            <text text-anchor="start" x="201.5552" y="-169.8" font-family="Times,serif" font-size="14.00" fill="var(--fg, black)">l</text>
            <polygon fill="none" stroke="var(--fg, black)" points="148.5,-144 148.5,-164 185.5,-164 185.5,-144 148.5,-144" />
            <text text-anchor="start" x="163.5" y="-149.8" font-family="Times,serif" font-size="14.00" fill="var(--fg, black)">3</text>
            <polygon fill="none" stroke="var(--fg, black)" points="185.5,-144 185.5,-164 221.5,-164 221.5,-144 185.5,-144" />
            <text text-anchor="start" x="201.5552" y="-149.8" font-family="Times,serif" font-size="14.00" fill="var(--fg, black)">l</text>
            <polygon fill="none" stroke="var(--fg, black)" points="148.5,-124 148.5,-144 185.5,-144 185.5,-124 148.5,-124" />
            <text text-anchor="start" x="163.5" y="-129.8" font-family="Times,serif" font-size="14.00" fill="var(--fg, black)">4</text>
            <polygon fill="none" stroke="var(--fg, black)" points="185.5,-124 185.5,-144 221.5,-144 221.5,-124 185.5,-124" />
            <text text-anchor="start" x="200" y="-129.8" font-family="Times,serif" font-size="14.00" fill="var(--fg, black)">o</text>
            <polygon fill="none" stroke="var(--fg, black)" points="148.5,-104 148.5,-124 185.5,-124 185.5,-104 148.5,-104" />
            <text text-anchor="start" x="163.5" y="-109.8" font-family="Times,serif" font-size="14.00" fill="var(--fg, black)">5</text>
            <polygon fill="none" stroke="var(--fg, black)" points="185.5,-104 185.5,-124 221.5,-124 221.5,-104 185.5,-104" />
            <text text-anchor="start" x="201.75" y="-109.8" font-family="Times,serif" font-size="14.00" fill="var(--fg, black)"></text>
            <polygon fill="none" stroke="var(--fg, black)" points="148.5,-84 148.5,-104 185.5,-104 185.5,-84 148.5,-84" />
            <text text-anchor="start" x="163.5" y="-89.8" font-family="Times,serif" font-size="14.00" fill="var(--fg, black)">6</text>
            <polygon fill="none" stroke="var(--fg, black)" points="185.5,-84 185.5,-104 221.5,-104 221.5,-84 185.5,-84" />
            <text text-anchor="start" x="198.4448" y="-89.8" font-family="Times,serif" font-size="14.00" fill="var(--fg, black)">w</text>
            <polygon fill="none" stroke="var(--fg, black)" points="148.5,-64 148.5,-84 185.5,-84 185.5,-64 148.5,-64" />
            <text text-anchor="start" x="163.5" y="-69.8" font-family="Times,serif" font-size="14.00" fill="var(--fg, black)">7</text>
            <polygon fill="none" stroke="var(--fg, black)" points="185.5,-64 185.5,-84 221.5,-84 221.5,-64 185.5,-64" />
            <text text-anchor="start" x="200" y="-69.8" font-family="Times,serif" font-size="14.00" fill="var(--fg, black)">o</text>
            <polygon fill="none" stroke="var(--fg, black)" points="148.5,-44 148.5,-64 185.5,-64 185.5,-44 148.5,-44" />
            <text text-anchor="start" x="163.5" y="-49.8" font-family="Times,serif" font-size="14.00" fill="var(--fg, black)">8</text>
            <polygon fill="none" stroke="var(--fg, black)" points="185.5,-44 185.5,-64 221.5,-64 221.5,-44 185.5,-44" />
            <text text-anchor="start" x="201.1689" y="-49.8" font-family="Times,serif" font-size="14.00" fill="var(--fg, black)">r</text>
            <polygon fill="none" stroke="var(--fg, black)" points="148.5,-24 148.5,-44 185.5,-44 185.5,-24 148.5,-24" />
            <text text-anchor="start" x="163.5" y="-29.8" font-family="Times,serif" font-size="14.00" fill="var(--fg, black)">9</text>
            <polygon fill="none" stroke="var(--fg, black)" points="185.5,-24 185.5,-44 221.5,-44 221.5,-24 185.5,-24" />
            <text text-anchor="start" x="201.5552" y="-29.8" font-family="Times,serif" font-size="14.00" fill="var(--fg, black)">l</text>
            <polygon fill="none" stroke="var(--fg, black)" points="148.5,-4 148.5,-24 185.5,-24 185.5,-4 148.5,-4" />
            <text text-anchor="start" x="160" y="-9.8" font-family="Times,serif" font-size="14.00" fill="var(--fg, black)">10</text>
            <polygon fill="none" stroke="var(--fg, black)" points="185.5,-4 185.5,-24 221.5,-24 221.5,-4 185.5,-4" />
            <text text-anchor="start" x="200" y="-9.8" font-family="Times,serif" font-size="14.00" fill="var(--fg, black)">d</text>
        </g>
        <g id="14-06-edge1" class="edge">
            <title>table0:c&#45;&gt;table4:pointee2</title>
            <path fill="none" stroke="var(--fg, black)" d="M70,-91C70,-91 105.7964,-93.4639 138.4948,-93.9258" />
            <polygon fill="var(--fg, black)" stroke="var(--fg, black)" points="138.4743,-97.4257 148.5,-94 138.5263,-90.4259 138.4743,-97.4257" />
        </g>
        <g id="14-06-node2" class="node">
            <title>table3</title>
            <polyline fill="none" stroke="var(--fg, black)" points="8,-247 96,-247 " />
            <text text-anchor="start" x="49.2759" y="-252.8" font-family="Times,serif" font-size="14.00" fill="var(--fg, black)">s</text>
            <polygon fill="none" stroke="var(--fg, black)" points="8,-227 8,-247 60,-247 60,-227 8,-227" />
            <text text-anchor="start" x="18.8413" y="-232.8" font-family="Times,serif" font-size="14.00" fill="var(--fg, black)">name</text>
            <polygon fill="none" stroke="var(--fg, black)" points="60,-227 60,-247 96,-247 96,-227 60,-227" />
            <text text-anchor="start" x="62.8413" y="-232.8" font-family="Times,serif" font-size="14.00" fill="var(--fg, black)">value</text>
            <polygon fill="none" stroke="var(--fg, black)" points="8,-207 8,-227 60,-227 60,-207 8,-207" />
            <text text-anchor="start" x="26.2241" y="-212.8" font-family="Times,serif" font-size="14.00" fill="var(--fg, black)">ptr</text>
            <polygon fill="none" stroke="var(--fg, black)" points="60,-207 60,-227 96,-227 96,-207 60,-207" />
            <polygon fill="none" stroke="var(--fg, black)" points="8,-187 8,-207 60,-207 60,-187 8,-187" />
            <text text-anchor="start" x="25.4482" y="-192.8" font-family="Times,serif" font-size="14.00" fill="var(--fg, black)">len</text>
            <polygon fill="none" stroke="var(--fg, black)" points="60,-187 60,-207 96,-207 96,-187 60,-187" />
            <text text-anchor="start" x="71.2563" y="-192.8" font-family="Times,serif" font-size="14.00" fill="var(--fg, black)">11</text>
            <polygon fill="none" stroke="var(--fg, black)" points="8,-167 8,-187 60,-187 60,-167 8,-167" />
            <text text-anchor="start" x="10.6826" y="-172.8" font-family="Times,serif" font-size="14.00" fill="var(--fg, black)">capacity</text>
            <polygon fill="none" stroke="var(--fg, black)" points="60,-167 60,-187 96,-187 96,-167 60,-167" />
            <text text-anchor="start" x="71.2563" y="-172.8" font-family="Times,serif" font-size="14.00" fill="var(--fg, black)">11</text>
        </g>
        <g id="14-06-edge2" class="edge">
            <title>table3:c&#45;&gt;table4:pointee</title>
            <path fill="none" stroke="var(--fg, black)" d="M78,-217C78,-217 109.3179,-214.5994 138.3725,-214.0931" />
            <polygon fill="var(--fg, black)" stroke="var(--fg, black)" points="138.5326,-217.5918 148.5,-214 138.4682,-210.5921 138.5326,-217.5918" />
        </g>
    </g>
</svg>