<?xml version="1.0" encoding="UTF-8" standalone="no"?>
<!DOCTYPE svg PUBLIC "-//W3C//DTD SVG 1.1//EN"
 "http://www.w3.org/Graphics/SVG/1.1/DTD/svg11.dtd">
<!-- Generated by graphviz version 7.0.1 (20221109.1506)
 -->
<!-- Pages: 1 -->
<svg viewBox="0.00 0.00 1500.00 1800.00" xmlns="http://www.w3.org/2000/svg" xmlns:xlink="http://www.w3.org/1999/xlink">
<g id="graph0" class="graph" transform="scale(4.16667 4.16667) rotate(0) translate(4 400.5)">
<polygon fill="white" stroke="none" points="-4,4 -4,-400.5 358,-400.5 358,4 -4,4"/>
<!-- table3 -->
<g id="node1" class="node">
<title>table3</title>
<polyline fill="none" stroke="black" points="133,-371 221,-371"/>
<text text-anchor="start" x="174" y="-377.8" font-family="Times,serif" font-size="14.00">s</text>
<polygon fill="none" stroke="black" points="133,-350 133,-371 185,-371 185,-350 133,-350"/>
<text text-anchor="start" x="143.5" y="-356.8" font-family="Times,serif" font-size="14.00">name</text>
<polygon fill="none" stroke="black" points="185,-350 185,-371 221,-371 221,-350 185,-350"/>
<text text-anchor="start" x="188" y="-356.8" font-family="Times,serif" font-size="14.00">value</text>
<polygon fill="none" stroke="black" points="133,-329 133,-350 185,-350 185,-329 133,-329"/>
<text text-anchor="start" x="151" y="-335.8" font-family="Times,serif" font-size="14.00">ptr</text>
<polygon fill="none" stroke="black" points="185,-329 185,-350 221,-350 221,-329 185,-329"/>
<polygon fill="none" stroke="black" points="133,-308 133,-329 185,-329 185,-308 133,-308"/>
<text text-anchor="start" x="150.5" y="-314.8" font-family="Times,serif" font-size="14.00">len</text>
<polygon fill="none" stroke="black" points="185,-308 185,-329 221,-329 221,-308 185,-308"/>
<text text-anchor="start" x="196" y="-314.8" font-family="Times,serif" font-size="14.00">11</text>
<polygon fill="none" stroke="black" points="133,-287 133,-308 185,-308 185,-287 133,-287"/>
<text text-anchor="start" x="136" y="-293.8" font-family="Times,serif" font-size="14.00">capacity</text>
<polygon fill="none" stroke="black" points="185,-287 185,-308 221,-308 221,-287 185,-287"/>
<text text-anchor="start" x="196" y="-293.8" font-family="Times,serif" font-size="14.00">11</text>
</g>
<!-- table1 -->
<g id="node2" class="node">
<title>table1</title>
<polyline fill="none" stroke="black" points="141,-240 214,-240"/>
<text text-anchor="start" x="163.5" y="-246.8" font-family="Times,serif" font-size="14.00">hello</text>
<polygon fill="none" stroke="black" points="141,-219 141,-240 178,-240 178,-219 141,-219"/>
<text text-anchor="start" x="144" y="-225.8" font-family="Times,serif" font-size="14.00">name</text>
<polygon fill="none" stroke="black" points="178,-219 178,-240 214,-240 214,-219 178,-219"/>
<text text-anchor="start" x="181" y="-225.8" font-family="Times,serif" font-size="14.00">value</text>
<polygon fill="none" stroke="black" points="141,-198 141,-219 178,-219 178,-198 141,-198"/>
<text text-anchor="start" x="151.5" y="-204.8" font-family="Times,serif" font-size="14.00">ptr</text>
<polygon fill="none" stroke="black" points="178,-198 178,-219 214,-219 214,-198 178,-198"/>
<polygon fill="none" stroke="black" points="141,-177 141,-198 178,-198 178,-177 141,-177"/>
<text text-anchor="start" x="151" y="-183.8" font-family="Times,serif" font-size="14.00">len</text>
<polygon fill="none" stroke="black" points="178,-177 178,-198 214,-198 214,-177 178,-177"/>
<text text-anchor="start" x="192.5" y="-183.8" font-family="Times,serif" font-size="14.00">5</text>
</g>
<!-- table3&#45;&gt;table1 -->
<!-- table4 -->
<g id="node4" class="node">
<title>table4</title>
<polygon fill="none" stroke="black" points="273.5,-235 273.5,-256 310.5,-256 310.5,-235 273.5,-235"/>
<text text-anchor="start" x="276.5" y="-241.8" font-family="Times,serif" font-size="14.00">index</text>
<polygon fill="none" stroke="black" points="310.5,-235 310.5,-256 346.5,-256 346.5,-235 310.5,-235"/>
<text text-anchor="start" x="313.5" y="-241.8" font-family="Times,serif" font-size="14.00">value</text>
<polygon fill="none" stroke="black" points="273.5,-214 273.5,-235 310.5,-235 310.5,-214 273.5,-214"/>
<text text-anchor="start" x="288.5" y="-220.8" font-family="Times,serif" font-size="14.00">0</text>
<polygon fill="none" stroke="black" points="310.5,-214 310.5,-235 346.5,-235 346.5,-214 310.5,-214"/>
<text text-anchor="start" x="325" y="-220.8" font-family="Times,serif" font-size="14.00">h</text>
<polygon fill="none" stroke="black" points="273.5,-193 273.5,-214 310.5,-214 310.5,-193 273.5,-193"/>
<text text-anchor="start" x="288.5" y="-199.8" font-family="Times,serif" font-size="14.00">1</text>
<polygon fill="none" stroke="black" points="310.5,-193 310.5,-214 346.5,-214 346.5,-193 310.5,-193"/>
<text text-anchor="start" x="325" y="-199.8" font-family="Times,serif" font-size="14.00">e</text>
<polygon fill="none" stroke="black" points="273.5,-172 273.5,-193 310.5,-193 310.5,-172 273.5,-172"/>
<text text-anchor="start" x="288.5" y="-178.8" font-family="Times,serif" font-size="14.00">2</text>
<polygon fill="none" stroke="black" points="310.5,-172 310.5,-193 346.5,-193 346.5,-172 310.5,-172"/>
<text text-anchor="start" x="326.5" y="-178.8" font-family="Times,serif" font-size="14.00">l</text>
<polygon fill="none" stroke="black" points="273.5,-151 273.5,-172 310.5,-172 310.5,-151 273.5,-151"/>
<text text-anchor="start" x="288.5" y="-157.8" font-family="Times,serif" font-size="14.00">3</text>
<polygon fill="none" stroke="black" points="310.5,-151 310.5,-172 346.5,-172 346.5,-151 310.5,-151"/>
<text text-anchor="start" x="326.5" y="-157.8" font-family="Times,serif" font-size="14.00">l</text>
<polygon fill="none" stroke="black" points="273.5,-130 273.5,-151 310.5,-151 310.5,-130 273.5,-130"/>
<text text-anchor="start" x="288.5" y="-136.8" font-family="Times,serif" font-size="14.00">4</text>
<polygon fill="none" stroke="black" points="310.5,-130 310.5,-151 346.5,-151 346.5,-130 310.5,-130"/>
<text text-anchor="start" x="325" y="-136.8" font-family="Times,serif" font-size="14.00">o</text>
<polygon fill="none" stroke="black" points="273.5,-109 273.5,-130 310.5,-130 310.5,-109 273.5,-109"/>
<text text-anchor="start" x="288.5" y="-115.8" font-family="Times,serif" font-size="14.00">5</text>
<polygon fill="none" stroke="black" points="310.5,-109 310.5,-130 346.5,-130 346.5,-109 310.5,-109"/>
<text text-anchor="start" x="326.5" y="-115.8" font-family="Times,serif" font-size="14.00"> </text>
<polygon fill="none" stroke="black" points="273.5,-88 273.5,-109 310.5,-109 310.5,-88 273.5,-88"/>
<text text-anchor="start" x="288.5" y="-94.8" font-family="Times,serif" font-size="14.00">6</text>
<polygon fill="none" stroke="black" points="310.5,-88 310.5,-109 346.5,-109 346.5,-88 310.5,-88"/>
<text text-anchor="start" x="323.5" y="-94.8" font-family="Times,serif" font-size="14.00">w</text>
<polygon fill="none" stroke="black" points="273.5,-67 273.5,-88 310.5,-88 310.5,-67 273.5,-67"/>
<text text-anchor="start" x="288.5" y="-73.8" font-family="Times,serif" font-size="14.00">7</text>
<polygon fill="none" stroke="black" points="310.5,-67 310.5,-88 346.5,-88 346.5,-67 310.5,-67"/>
<text text-anchor="start" x="325" y="-73.8" font-family="Times,serif" font-size="14.00">o</text>
<polygon fill="none" stroke="black" points="273.5,-46 273.5,-67 310.5,-67 310.5,-46 273.5,-46"/>
<text text-anchor="start" x="288.5" y="-52.8" font-family="Times,serif" font-size="14.00">8</text>
<polygon fill="none" stroke="black" points="310.5,-46 310.5,-67 346.5,-67 346.5,-46 310.5,-46"/>
<text text-anchor="start" x="326" y="-52.8" font-family="Times,serif" font-size="14.00">r</text>
<polygon fill="none" stroke="black" points="273.5,-25 273.5,-46 310.5,-46 310.5,-25 273.5,-25"/>
<text text-anchor="start" x="288.5" y="-31.8" font-family="Times,serif" font-size="14.00">9</text>
<polygon fill="none" stroke="black" points="310.5,-25 310.5,-46 346.5,-46 346.5,-25 310.5,-25"/>
<text text-anchor="start" x="326.5" y="-31.8" font-family="Times,serif" font-size="14.00">l</text>
<polygon fill="none" stroke="black" points="273.5,-4 273.5,-25 310.5,-25 310.5,-4 273.5,-4"/>
<text text-anchor="start" x="285" y="-10.8" font-family="Times,serif" font-size="14.00">10</text>
<polygon fill="none" stroke="black" points="310.5,-4 310.5,-25 346.5,-25 346.5,-4 310.5,-4"/>
<text text-anchor="start" x="325" y="-10.8" font-family="Times,serif" font-size="14.00">d</text>
</g>
<!-- table3&#45;&gt;table4 -->
<g id="edge1" class="edge">
<title>table3:c&#45;&gt;table4:pointee</title>
<path fill="none" stroke="black" d="M204,-339C204,-339 234.62,-249.37 262.16,-229.06"/>
<polygon fill="black" stroke="black" points="263.06,-232.47 271.09,-225.55 260.5,-225.95 263.06,-232.47"/>
</g>
<!-- table0 -->
<g id="node3" class="node">
<title>table0</title>
<polyline fill="none" stroke="black" points="141,-130 214,-130"/>
<text text-anchor="start" x="161.5" y="-136.8" font-family="Times,serif" font-size="14.00">world</text>
<polygon fill="none" stroke="black" points="141,-109 141,-130 178,-130 178,-109 141,-109"/>
<text text-anchor="start" x="144" y="-115.8" font-family="Times,serif" font-size="14.00">name</text>
<polygon fill="none" stroke="black" points="178,-109 178,-130 214,-130 214,-109 178,-109"/>
<text text-anchor="start" x="181" y="-115.8" font-family="Times,serif" font-size="14.00">value</text>
<polygon fill="none" stroke="black" points="141,-88 141,-109 178,-109 178,-88 141,-88"/>
<text text-anchor="start" x="151.5" y="-94.8" font-family="Times,serif" font-size="14.00">ptr</text>
<polygon fill="none" stroke="black" points="178,-88 178,-109 214,-109 214,-88 178,-88"/>
<polygon fill="none" stroke="black" points="141,-67 141,-88 178,-88 178,-67 141,-67"/>
<text text-anchor="start" x="151" y="-73.8" font-family="Times,serif" font-size="14.00">len</text>
<polygon fill="none" stroke="black" points="178,-67 178,-88 214,-88 214,-67 178,-67"/>
<text text-anchor="start" x="192.5" y="-73.8" font-family="Times,serif" font-size="14.00">5</text>
</g>
<!-- table1&#45;&gt;table0 -->
<!-- table1&#45;&gt;table4 -->
<g id="edge3" class="edge">
<title>table1:c&#45;&gt;table4:pointee</title>
<path fill="none" stroke="black" d="M197,-208C197,-208 229.6,-221.48 261.04,-224.43"/>
<polygon fill="black" stroke="black" points="260.83,-227.93 270.99,-224.93 261.17,-220.94 260.83,-227.93"/>
</g>
<!-- table0&#45;&gt;table4 -->
<g id="edge2" class="edge">
<title>table0:c&#45;&gt;table4:pointee2</title>
<path fill="none" stroke="black" d="M197,-98C197,-98 230.27,-98 261.25,-98"/>
<polygon fill="black" stroke="black" points="260.99,-101.5 270.99,-98 260.99,-94.5 260.99,-101.5"/>
</g>
<!-- table5 -->
<g id="node5" class="node">
<title>table5</title>
<polyline fill="none" stroke="black" points="8.5,-371 81.5,-371"/>
<text text-anchor="start" x="38.5" y="-377.8" font-family="Times,serif" font-size="14.00">s2</text>
<polygon fill="none" stroke="black" points="8.5,-350 8.5,-371 45.5,-371 45.5,-350 8.5,-350"/>
<text text-anchor="start" x="11.5" y="-356.8" font-family="Times,serif" font-size="14.00">name</text>
<polygon fill="none" stroke="black" points="45.5,-350 45.5,-371 81.5,-371 81.5,-350 45.5,-350"/>
<text text-anchor="start" x="48.5" y="-356.8" font-family="Times,serif" font-size="14.00">value</text>
<polygon fill="none" stroke="black" points="8.5,-329 8.5,-350 45.5,-350 45.5,-329 8.5,-329"/>
<text text-anchor="start" x="19" y="-335.8" font-family="Times,serif" font-size="14.00">ptr</text>
<polygon fill="none" stroke="black" points="45.5,-329 45.5,-350 81.5,-350 81.5,-329 45.5,-329"/>
</g>
<!-- table5&#45;&gt;table3 -->
<g id="edge4" class="edge">
<title>table5:c&#45;&gt;table3:pointee</title>
<path fill="none" stroke="black" d="M64.5,-339C64.5,-339 93.47,-339 120.85,-339"/>
<polygon fill="black" stroke="black" points="120.49,-342.5 130.49,-339 120.49,-335.5 120.49,-342.5"/>
</g>
</g>
</svg>
