<svg viewBox="0.00 0.00 1000 550" xmlns="http://www.w3.org/2000/svg" xmlns:xlink="http://www.w3.org/1999/xlink" alt="Reference cycle of lists">
    <g id="graph0" class="graph" transform="scale(3.5 3.5) rotate(0) translate(4 148.09)">
        <title>Figure 15-4</title>
        <polygon fill="var(--bg, white)" stroke="transparent" points="-4,4 -4,-148.09 274,-148.09 274,4 -4,4" />
        <g id="node1" class="node">
            <title>l1</title>
            <polygon fill="none" stroke="var(--fg, black)" points="90,-52.59 90,-88.59 144,-88.59 144,-52.59 90,-52.59" />
            <text fill="var(--fg, black)" text-anchor="middle" x="104" y="-66.89" font-family="Times,serif" font-size="14.00">5</text>
            <polyline fill="none" stroke="var(--fg, black)" points="118,-52.59 118,-88.59 " />
            <text text-anchor="middle" x="131" y="-66.89" font-family="Times,serif" font-size="14.00"></text>
        </g>
        <g id="node2" class="node">
            <title>l2</title>
            <polygon fill="none" stroke="var(--fg, black)" points="180,-52.59 180,-88.59 234,-88.59 234,-52.59 180,-52.59" />
            <text fill="var(--fg, black)" text-anchor="middle" x="196" y="-66.89" font-family="Times,serif" font-size="14.00">10</text>
            <polyline fill="none" stroke="var(--fg, black)" points="212,-52.59 212,-88.59 " />
            <text text-anchor="middle" x="223" y="-66.89" font-family="Times,serif" font-size="14.00"></text>
        </g>
        <g id="edge5" class="edge">
            <title>l1:c&#45;&gt;l2:data</title>
            <path fill="none" stroke="var(--fg, black)" d="
            M144.31,-70.59C151.47,-70.59 160.69,-70.59 169.83,-70.59" />
            <polygon fill="var(--fg, black)" stroke="var(--fg, black)" points="170,-74.09 180,-70.59 170,-67.09 170,-74.09" />
        </g>
        <g id="edge3" class="edge">
            <title>l2:c&#45;&gt;l1</title>
            <path fill="none" stroke="var(--fg, black)" d="M234.38,-69.89 C248.29,-68.34 270,-63.4 270,-45.59C270,8.45 27,17.45 27,-36.59C27,-50.42 55.22,-59.08 79.87,-64.38" />
            <polygon fill="var(--fg, black)" stroke="var(--fg, black)" points="79.28,-67.83 89.78,-66.38 80.67,-60.97 79.28,-67.83" />
        </g>
        <g id="node5" class="node">
            <title>a</title>
            <polygon fill="none" stroke="var(--fg, black)" points="0,-70.59 0,-106.59 54,-106.59 54,-70.59 0,-70.59" />
            <text fill="var(--fg, black)" text-anchor="middle" x="27" y="-84.89" font-family="Times,serif" font-size="14.00">a</text>
        </g>
        <g id="edge1" class="edge">
            <title>a&#45;&gt;l1:n</title>
            <path fill="none" stroke="var(--fg, black)" d="M54.22,-93.79C73.3,-97.06 97.79,-100.05 109.76,-96.58" />
            <polygon fill="var(--fg, black)" stroke="var(--fg, black)" points="112.24,-99.06 117,-89.59 107.38,-94.02 112.24,-99.06" />
        </g>
        <g id="node6" class="node">
            <title>b</title>
            <polygon fill="none" stroke="var(--fg, black)" points="90,-107.59 90,-143.59 144,-143.59 144,-107.59 90,-107.59" />
            <text fill="var(--fg, black)" text-anchor="middle" x="117" y="-121.89" font-family="Times,serif" font-size="14.00">b</text>
        </g>
        <g id="edge2" class="edge">
            <title>b&#45;&gt;l2:n</title>
            <path fill="none" stroke="var(--fg, black)" d="M144.22,-125.57C166.99,-124.22 197.48,-118.71 205.18,-99.44" />
            <polygon fill="var(--fg, black)" stroke="var(--fg, black)" points="208.62,-100.06 207,-89.59 201.74,-98.79 208.62,-100.06" />
        </g>
    </g>
</svg>