<?xml version="1.0" encoding="UTF-8" standalone="no"?>
<!DOCTYPE svg PUBLIC "-//W3C//DTD SVG 1.1//EN"
 "http://www.w3.org/Graphics/SVG/1.1/DTD/svg11.dtd">
<!-- Generated by graphviz version 2.38.0 (20140413.2041)
 -->
<!-- Title: %3 Pages: 1 -->
 <svg width="500pt"
  viewBox="0.00 0.00 2000 1000" xmlns="http://www.w3.org/2000/svg"
xmlns:xlink="http://www.w3.org/1999/xlink">
<g id="graph0" class="graph" transform="scale(4.16667 4.16667) rotate(0) translate(4 121.536)">
<title>%3</title>
<polygon fill="white" stroke="none" points="-4,4 -4,-121.536 148,-121.536 148,4 -4,4"/>
<!-- table0 -->
<g id="node1" class="node"><title>table0</title>
<polyline fill="none" stroke="black" points="18,-89.5359 30,-89.5359 "/>
<text text-anchor="start" x="20.8931" y="-95.3359" font-family="Times,serif" font-size="14.00">a</text>
<polyline fill="none" stroke="black" points="30,-89.5359 36,-89.5359 "/>
</g>
<!-- table1 -->
<g id="node2" class="node"><title>table1</title>
<polygon fill="none" stroke="black" points="104,-89.5359 104,-109.536 117,-109.536 117,-89.5359 104,-89.5359"/>
<text text-anchor="start" x="107" y="-95.3359" font-family="Times,serif" font-size="14.00">5</text>
<polygon fill="none" stroke="black" points="117,-89.5359 117,-109.536 130,-109.536 130,-89.5359 117,-89.5359"/>
<text text-anchor="start" x="120" y="-95.3359" font-family="Times,serif" font-size="14.00"> &#160;</text>
</g>
<!-- table0&#45;&gt;table1 -->
<g id="edge1" class="edge"><title>table0:ptr0:c&#45;&gt;table1:pte0</title>
<path fill="none" stroke="black" d="M34,-99.5359C34,-99.5359 64.4065,-99.5359 92.7225,-99.5359"/>
<polygon fill="black" stroke="black" points="93,-103.036 103,-99.5359 93,-96.036 93,-103.036"/>
</g>
<!-- table3 -->
<g id="node4" class="node"><title>table3</title>
<polygon fill="none" stroke="black" points="11,-35.5359 11,-55.5359 31,-55.5359 31,-35.5359 11,-35.5359"/>
<text text-anchor="start" x="14" y="-41.3359" font-family="Times,serif" font-size="14.00">10</text>
<polygon fill="none" stroke="black" points="31,-35.5359 31,-55.5359 44,-55.5359 44,-35.5359 31,-35.5359"/>
<text text-anchor="start" x="34" y="-41.3359" font-family="Times,serif" font-size="14.00"> &#160;</text>
</g>
<!-- table0&#45;&gt;table3 -->
<g id="edge4" class="edge"><title>table0:ptr3&#45;&gt;table3:pte3:c</title>
<path fill="none" stroke="black" d="M29.1076,-64.7796C26.3405,-72.003 24,-80.4907 24,-88.5359"/>
<polygon fill="black" stroke="black" points="32.3262,-66.1545 33.1035,-55.5882 25.9066,-63.3636 32.3262,-66.1545"/>
</g>
<!-- table2 -->
<g id="node3" class="node"><title>table2</title>
<polyline fill="none" stroke="black" points="108,-35.5359 121,-35.5359 "/>
<text text-anchor="start" x="111" y="-41.3359" font-family="Times,serif" font-size="14.00">b</text>
<polyline fill="none" stroke="black" points="121,-35.5359 127,-35.5359 "/>
</g>
<!-- table1&#45;&gt;table2 -->
<g id="edge2" class="edge"><title>table1:ptr1:c&#45;&gt;table2:pte1</title>
<path fill="none" stroke="black" d="M114.785,-66.6168C117.142,-82.892 124,-98.5359 124,-98.5359"/>
<polygon fill="black" stroke="black" points="118.266,-66.2341 114,-56.5359 111.287,-66.7774 118.266,-66.2341"/>
</g>
<!-- table3&#45;&gt;table2 -->
<g id="edge3" class="edge"><title>table3:ptr2&#45;&gt;table2:pte2</title>
<path fill="none" stroke="black" d="M22.7878,-24.645C36.4651,10.9625 124,7.66549 124,-34.5359"/>
<polygon fill="black" stroke="black" points="19.3345,-24.0728 21,-34.5359 26.2229,-25.3179 19.3345,-24.0728"/>
</g>
</g>
</svg>
