<?xml version="1.0" encoding="UTF-8" standalone="no"?>
<!DOCTYPE svg PUBLIC "-//W3C//DTD SVG 1.1//EN"
 "http://www.w3.org/Graphics/SVG/1.1/DTD/svg11.dtd">
<!-- Generated by graphviz version 2.40.1 (20161225.0304)
 -->
<!-- Title: %3 Pages: 1 -->
<svg
 viewBox="0.00 0.00 1000.00 1300.00" xmlns="http://www.w3.org/2000/svg" xmlns:xlink="http://www.w3.org/1999/xlink">
<g id="graph0" class="graph" transform="scale(4.1667 4.1667) rotate(0) translate(4 298)">
<title>%3</title>
<polygon fill="#ffffff" stroke="transparent" points="-4,4 -4,-298 233,-298 233,4 -4,4"/>
<!-- table0 -->
<g id="node1" class="node">
<title>table0</title>
<polyline fill="none" stroke="#000000" points="8,-124 96,-124 "/>
<text text-anchor="start" x="45.7759" y="-129.8" font-family="Times,serif" font-size="14.00" fill="#000000">s2</text>
<polygon fill="none" stroke="#000000" points="8,-104 8,-124 60,-124 60,-104 8,-104"/>
<text text-anchor="start" x="18.8413" y="-109.8" font-family="Times,serif" font-size="14.00" fill="#000000">name</text>
<polygon fill="none" stroke="#000000" points="60,-104 60,-124 96,-124 96,-104 60,-104"/>
<text text-anchor="start" x="62.8413" y="-109.8" font-family="Times,serif" font-size="14.00" fill="#000000">value</text>
<polygon fill="none" stroke="#000000" points="8,-84 8,-104 60,-104 60,-84 8,-84"/>
<text text-anchor="start" x="26.2241" y="-89.8" font-family="Times,serif" font-size="14.00" fill="#000000">ptr</text>
<polygon fill="none" stroke="#000000" points="60,-84 60,-104 96,-104 96,-84 60,-84"/>
<polygon fill="none" stroke="#000000" points="8,-64 8,-84 60,-84 60,-64 8,-64"/>
<text text-anchor="start" x="25.4482" y="-69.8" font-family="Times,serif" font-size="14.00" fill="#000000">len</text>
<polygon fill="none" stroke="#000000" points="60,-64 60,-84 96,-84 96,-64 60,-64"/>
<text text-anchor="start" x="74.5" y="-69.8" font-family="Times,serif" font-size="14.00" fill="#000000">5</text>
<polygon fill="none" stroke="#000000" points="8,-44 8,-64 60,-64 60,-44 8,-44"/>
<text text-anchor="start" x="10.6826" y="-49.8" font-family="Times,serif" font-size="14.00" fill="#000000">capacity</text>
<polygon fill="none" stroke="#000000" points="60,-44 60,-64 96,-64 96,-44 60,-44"/>
<text text-anchor="start" x="74.5" y="-49.8" font-family="Times,serif" font-size="14.00" fill="#000000">5</text>
</g>
<!-- table1 -->
<g id="node2" class="node">
<title>table1</title>
<polygon fill="none" stroke="#000000" points="148.5,-104 148.5,-124 185.5,-124 185.5,-104 148.5,-104"/>
<text text-anchor="start" x="151.4482" y="-109.8" font-family="Times,serif" font-size="14.00" fill="#000000">index</text>
<polygon fill="none" stroke="#000000" points="185.5,-104 185.5,-124 221.5,-124 221.5,-104 185.5,-104"/>
<text text-anchor="start" x="188.3413" y="-109.8" font-family="Times,serif" font-size="14.00" fill="#000000">value</text>
<polygon fill="none" stroke="#000000" points="148.5,-84 148.5,-104 185.5,-104 185.5,-84 148.5,-84"/>
<text text-anchor="start" x="163.5" y="-89.8" font-family="Times,serif" font-size="14.00" fill="#000000">0</text>
<polygon fill="none" stroke="#000000" points="185.5,-84 185.5,-104 221.5,-104 221.5,-84 185.5,-84"/>
<text text-anchor="start" x="200" y="-89.8" font-family="Times,serif" font-size="14.00" fill="#000000">h</text>
<polygon fill="none" stroke="#000000" points="148.5,-64 148.5,-84 185.5,-84 185.5,-64 148.5,-64"/>
<text text-anchor="start" x="163.5" y="-69.8" font-family="Times,serif" font-size="14.00" fill="#000000">1</text>
<polygon fill="none" stroke="#000000" points="185.5,-64 185.5,-84 221.5,-84 221.5,-64 185.5,-64"/>
<text text-anchor="start" x="200.3931" y="-69.8" font-family="Times,serif" font-size="14.00" fill="#000000">e</text>
<polygon fill="none" stroke="#000000" points="148.5,-44 148.5,-64 185.5,-64 185.5,-44 148.5,-44"/>
<text text-anchor="start" x="163.5" y="-49.8" font-family="Times,serif" font-size="14.00" fill="#000000">2</text>
<polygon fill="none" stroke="#000000" points="185.5,-44 185.5,-64 221.5,-64 221.5,-44 185.5,-44"/>
<text text-anchor="start" x="201.5552" y="-49.8" font-family="Times,serif" font-size="14.00" fill="#000000">l</text>
<polygon fill="none" stroke="#000000" points="148.5,-24 148.5,-44 185.5,-44 185.5,-24 148.5,-24"/>
<text text-anchor="start" x="163.5" y="-29.8" font-family="Times,serif" font-size="14.00" fill="#000000">3</text>
<polygon fill="none" stroke="#000000" points="185.5,-24 185.5,-44 221.5,-44 221.5,-24 185.5,-24"/>
<text text-anchor="start" x="201.5552" y="-29.8" font-family="Times,serif" font-size="14.00" fill="#000000">l</text>
<polygon fill="none" stroke="#000000" points="148.5,-4 148.5,-24 185.5,-24 185.5,-4 148.5,-4"/>
<text text-anchor="start" x="163.5" y="-9.8" font-family="Times,serif" font-size="14.00" fill="#000000">4</text>
<polygon fill="none" stroke="#000000" points="185.5,-4 185.5,-24 221.5,-24 221.5,-4 185.5,-4"/>
<text text-anchor="start" x="200" y="-9.8" font-family="Times,serif" font-size="14.00" fill="#000000">o</text>
</g>
<!-- table0&#45;&gt;table1 -->
<g id="edge1" class="edge">
<title>table0:c&#45;&gt;table1:pointee</title>
<path fill="none" stroke="#000000" d="M78,-94C78,-94 109.3406,-94 138.3797,-94"/>
<polygon fill="#000000" stroke="#000000" points="138.5,-97.5001 148.5,-94 138.5,-90.5001 138.5,-97.5001"/>
</g>
<!-- table3 -->
<g id="node3" class="node">
<title>table3</title>
<polyline fill="none" stroke="#000000" points="8,-270 96,-270 "/>
<text text-anchor="start" x="45.7759" y="-275.8" font-family="Times,serif" font-size="14.00" fill="#000000">s1</text>
<polygon fill="none" stroke="#000000" points="8,-250 8,-270 60,-270 60,-250 8,-250"/>
<text text-anchor="start" x="18.8413" y="-255.8" font-family="Times,serif" font-size="14.00" fill="#000000">name</text>
<polygon fill="none" stroke="#000000" points="60,-250 60,-270 96,-270 96,-250 60,-250"/>
<text text-anchor="start" x="62.8413" y="-255.8" font-family="Times,serif" font-size="14.00" fill="#000000">value</text>
<polygon fill="none" stroke="#000000" points="8,-230 8,-250 60,-250 60,-230 8,-230"/>
<text text-anchor="start" x="26.2241" y="-235.8" font-family="Times,serif" font-size="14.00" fill="#000000">ptr</text>
<polygon fill="none" stroke="#000000" points="60,-230 60,-250 96,-250 96,-230 60,-230"/>
<polygon fill="none" stroke="#000000" points="8,-210 8,-230 60,-230 60,-210 8,-210"/>
<text text-anchor="start" x="25.4482" y="-215.8" font-family="Times,serif" font-size="14.00" fill="#000000">len</text>
<polygon fill="none" stroke="#000000" points="60,-210 60,-230 96,-230 96,-210 60,-210"/>
<text text-anchor="start" x="74.5" y="-215.8" font-family="Times,serif" font-size="14.00" fill="#000000">5</text>
<polygon fill="none" stroke="#000000" points="8,-190 8,-210 60,-210 60,-190 8,-190"/>
<text text-anchor="start" x="10.6826" y="-195.8" font-family="Times,serif" font-size="14.00" fill="#000000">capacity</text>
<polygon fill="none" stroke="#000000" points="60,-190 60,-210 96,-210 96,-190 60,-190"/>
<text text-anchor="start" x="74.5" y="-195.8" font-family="Times,serif" font-size="14.00" fill="#000000">5</text>
</g>
<!-- table4 -->
<g id="node4" class="node">
<title>table4</title>
<polygon fill="none" stroke="#000000" points="148.5,-250 148.5,-270 185.5,-270 185.5,-250 148.5,-250"/>
<text text-anchor="start" x="151.4482" y="-255.8" font-family="Times,serif" font-size="14.00" fill="#000000">index</text>
<polygon fill="none" stroke="#000000" points="185.5,-250 185.5,-270 221.5,-270 221.5,-250 185.5,-250"/>
<text text-anchor="start" x="188.3413" y="-255.8" font-family="Times,serif" font-size="14.00" fill="#000000">value</text>
<polygon fill="none" stroke="#000000" points="148.5,-230 148.5,-250 185.5,-250 185.5,-230 148.5,-230"/>
<text text-anchor="start" x="163.5" y="-235.8" font-family="Times,serif" font-size="14.00" fill="#000000">0</text>
<polygon fill="none" stroke="#000000" points="185.5,-230 185.5,-250 221.5,-250 221.5,-230 185.5,-230"/>
<text text-anchor="start" x="200" y="-235.8" font-family="Times,serif" font-size="14.00" fill="#000000">h</text>
<polygon fill="none" stroke="#000000" points="148.5,-210 148.5,-230 185.5,-230 185.5,-210 148.5,-210"/>
<text text-anchor="start" x="163.5" y="-215.8" font-family="Times,serif" font-size="14.00" fill="#000000">1</text>
<polygon fill="none" stroke="#000000" points="185.5,-210 185.5,-230 221.5,-230 221.5,-210 185.5,-210"/>
<text text-anchor="start" x="200.3931" y="-215.8" font-family="Times,serif" font-size="14.00" fill="#000000">e</text>
<polygon fill="none" stroke="#000000" points="148.5,-190 148.5,-210 185.5,-210 185.5,-190 148.5,-190"/>
<text text-anchor="start" x="163.5" y="-195.8" font-family="Times,serif" font-size="14.00" fill="#000000">2</text>
<polygon fill="none" stroke="#000000" points="185.5,-190 185.5,-210 221.5,-210 221.5,-190 185.5,-190"/>
<text text-anchor="start" x="201.5552" y="-195.8" font-family="Times,serif" font-size="14.00" fill="#000000">l</text>
<polygon fill="none" stroke="#000000" points="148.5,-170 148.5,-190 185.5,-190 185.5,-170 148.5,-170"/>
<text text-anchor="start" x="163.5" y="-175.8" font-family="Times,serif" font-size="14.00" fill="#000000">3</text>
<polygon fill="none" stroke="#000000" points="185.5,-170 185.5,-190 221.5,-190 221.5,-170 185.5,-170"/>
<text text-anchor="start" x="201.5552" y="-175.8" font-family="Times,serif" font-size="14.00" fill="#000000">l</text>
<polygon fill="none" stroke="#000000" points="148.5,-150 148.5,-170 185.5,-170 185.5,-150 148.5,-150"/>
<text text-anchor="start" x="163.5" y="-155.8" font-family="Times,serif" font-size="14.00" fill="#000000">4</text>
<polygon fill="none" stroke="#000000" points="185.5,-150 185.5,-170 221.5,-170 221.5,-150 185.5,-150"/>
<text text-anchor="start" x="200" y="-155.8" font-family="Times,serif" font-size="14.00" fill="#000000">o</text>
</g>
<!-- table3&#45;&gt;table4 -->
<g id="edge2" class="edge">
<title>table3:c&#45;&gt;table4:pointee</title>
<path fill="none" stroke="#000000" d="M78,-240C78,-240 109.3406,-240 138.3797,-240"/>
<polygon fill="#000000" stroke="#000000" points="138.5,-243.5001 148.5,-240 138.5,-236.5001 138.5,-243.5001"/>
</g>
</g>
</svg>
