<svg height="1320pt" viewBox="0 0 253.38 316.8" width="1056pt" xmlns="http://www.w3.org/2000/svg"><g transform="matrix(.45153033 0 0 .45153033 56.962413 243.406039)"><path d="m-4 4v-316.8h253.38v316.8z" fill="#fff"/><path d="m69.38-8v-292.8h80v292.8z" fill="none" stroke="#000"/><text font-family="Times,serif" font-size="14" text-anchor="middle" x="109.38" y="-284.2">Task 1</text><path d="m157.38-80v-220.8h80v220.8z" fill="none" stroke="#000"/><text font-family="Times,serif" font-size="14" text-anchor="middle" x="197.38" y="-284.2">Task 2</text><g pointer-events="visible"><text font-family="Times,serif" font-size="14" text-anchor="middle" x="29.38" y="-245.8">Parallel</text><g><path d="m109.38-268-32.1 18 32.1 18 32.1-18z" fill="none" stroke="#000"/><text font-family="Times,serif" font-size="14" text-anchor="middle" x="109.38" y="-245.8">A1</text></g><g><path d="m109.38-196-32.1 18 32.1 18 32.1-18z" fill="none" stroke="#000"/><text font-family="Times,serif" font-size="14" text-anchor="middle" x="109.38" y="-173.8">A2</text></g></g><path d="m109.38-231.7v24.16" fill="none" stroke="#000"/><path d="m112.88-207.62-3.5 10-3.5-10z" stroke="#000"/><g pointer-events="visible"><path d="m109.38-124-32.1 18 32.1 18 32.1-18z" fill="none" stroke="#000"/><text font-family="Times,serif" font-size="14" text-anchor="middle" x="109.38" y="-101.8">A3</text></g><path d="m109.38-159.7v24.16" fill="none" stroke="#000"/><path d="m112.88-135.62-3.5 10-3.5-10z" stroke="#000"/><g pointer-events="visible"><path d="m109.38-52-32.1 18 32.1 18 32.1-18z" fill="none" stroke="#000"/><text font-family="Times,serif" font-size="14" text-anchor="middle" x="109.38" y="-29.8">A4</text></g><path d="m109.38-87.7v24.16" fill="none" stroke="#000"/><path d="m112.88-63.62-3.5 10-3.5-10z" stroke="#000"/><g pointer-events="visible"><path d="m197.38-268-31.59 18 31.59 18 31.59-18z" fill="none" stroke="#000"/><text font-family="Times,serif" font-size="14" text-anchor="middle" x="197.38" y="-245.8">B1</text></g><g pointer-events="visible"><path d="m197.38-196-31.59 18 31.59 18 31.59-18z" fill="none" stroke="#000"/><text font-family="Times,serif" font-size="14" text-anchor="middle" x="197.38" y="-173.8">B2</text></g><path d="m197.38-231.7v24.16" fill="none" stroke="#000"/><path d="m200.88-207.62-3.5 10-3.5-10z" stroke="#000"/><g pointer-events="visible"><path d="m197.38-124-31.59 18 31.59 18 31.59-18z" fill="none" stroke="#000"/><text font-family="Times,serif" font-size="14" text-anchor="middle" x="197.38" y="-101.8">B3</text></g><path d="m197.38-159.7v24.16" fill="none" stroke="#000"/><path d="m200.88-135.62-3.5 10-3.5-10z" stroke="#000"/></g></svg>